<?xml version="1.0" encoding="utf-8"?>
<!-- Generator: Adobe Illustrator 25.2.1, SVG Export Plug-In . SVG Version: 6.00 Build 0)  -->
<svg version="1.1" id="Layer_1" xmlns="http://www.w3.org/2000/svg" xmlns:xlink="http://www.w3.org/1999/xlink" x="0px" y="0px"
	 viewBox="0 0 171.44 188.44" style="enable-background:new 0 0 171.44 188.44;" xml:space="preserve">
<style type="text/css">
	.st0{fill-rule:evenodd;clip-rule:evenodd;fill:#EB242A;}
</style>
<path id="path14" class="st0" d="M85.71,0c0,0-13.82,26.63-15.65,29.35c-1.85,3.67-3.68,3.67-6.47,1.84
	c-3.68-1.84-14.76-8.22-14.76-8.22S59,66.97,59,70.63c0.91,3.68-2.79,6.43-6.48,3.68c-0.91-0.92-20.26-22.94-20.26-22.94
	s-4.61,10.08-5.55,11.95c-0.91,1.83-1.82,3.65-4.61,2.75c-3.68-0.92-21.21-4.62-21.21-4.62s6.49,22.01,7.4,24.78
	c0.88,2.18,1.84,4.59-1.85,6.43L0,95.42c0,0,37.77,33.1,38.7,33.99c1.85,1.84,3.7,2.79,1.85,8.3c-1.85,5.53-3.69,12.94-3.69,12.94
	s35.03-7.42,38.72-8.34c3.22-0.35,6.74,0.93,6.74,4.6c0,3.75-2.16,41.54-2.16,41.54h11.09c0,0-2.15-37.79-2.15-41.54
	c0-3.67,3.51-4.94,6.76-4.6c3.7,0.93,38.71,8.34,38.71,8.34s-1.85-7.42-3.71-12.94c-1.85-5.52,0-6.46,1.86-8.3
	c0.92-0.89,38.71-33.99,38.71-33.99l-6.44-2.76c-3.7-1.84-2.74-4.24-1.84-6.43c0.88-2.77,7.37-24.78,7.37-24.78
	s-17.53,3.7-21.21,4.62c-2.76,0.89-3.69-0.92-4.61-2.75c-0.93-1.86-5.54-11.95-5.54-11.95S119.8,73.4,118.9,74.31
	c-3.67,2.75-7.38,0-6.46-3.68c0-3.66,10.15-47.67,10.15-47.67s-11.07,6.38-14.75,8.22c-2.75,1.83-4.64,1.83-6.45-1.84
	C99.56,26.63,85.71,0,85.71,0L85.71,0"/>
</svg>
