<?xml version="1.0" encoding="UTF-8" standalone="no"?>
<svg
   xmlns:dc="http://purl.org/dc/elements/1.1/"
   xmlns:cc="http://creativecommons.org/ns#"
   xmlns:rdf="http://www.w3.org/1999/02/22-rdf-syntax-ns#"
   xmlns:svg="http://www.w3.org/2000/svg"
   xmlns="http://www.w3.org/2000/svg"
   viewBox="0 0 617.17334 42.666668"
   height="42.666668"
   width="617.17334"
   xml:space="preserve"
   id="svg2"
   version="1.1"><metadata
     id="metadata8"><rdf:RDF><cc:Work
         rdf:about=""><dc:format>image/svg+xml</dc:format><dc:type
           rdf:resource="http://purl.org/dc/dcmitype/StillImage" /></cc:Work></rdf:RDF></metadata><defs
     id="defs6" /><g
     transform="matrix(1.3333333,0,0,-1.3333333,0,42.666667)"
     id="g10"><g
       transform="scale(0.1)"
       id="g12"><path
         id="path14"
         style="fill:#ec1e27;fill-opacity:1;fill-rule:evenodd;stroke:none"
         d="m 286.902,295.887 c 0,0 -17.765,-34.239 -20.129,-37.739 -2.382,-4.722 -4.73,-4.722 -8.32,-2.363 -4.738,2.363 -18.98,10.57 -18.98,10.57 0,0 13.078,-56.582 13.078,-61.292 1.164,-4.735 -3.582,-8.266 -8.332,-4.735 -1.168,1.18 -26.051,29.496 -26.051,29.496 0,0 -5.93,-12.965 -7.141,-15.363 -1.172,-2.356 -2.343,-4.688 -5.929,-3.539 -4.731,1.183 -27.278,5.937 -27.278,5.937 0,0 8.344,-28.296 9.512,-31.859 1.137,-2.809 2.363,-5.902 -2.383,-8.262 l -8.261,-3.547 c 0,0 48.574,-42.558 49.765,-43.703 2.383,-2.367 4.754,-3.582 2.383,-10.675 -2.383,-7.106 -4.746,-16.641 -4.746,-16.641 0,0 45.047,9.535 49.793,10.726 4.14,0.446 8.664,-1.191 8.664,-5.91 0,-4.816 -2.774,-53.4099 -2.774,-53.4099 h 14.258 c 0,0 -2.761,48.5939 -2.761,53.4099 0,4.719 4.511,6.356 8.687,5.91 4.758,-1.191 49.781,-10.726 49.781,-10.726 0,0 -2.375,9.535 -4.765,16.641 -2.375,7.093 0,8.308 2.39,10.675 1.184,1.145 49.782,43.703 49.782,43.703 l -8.278,3.547 c -4.754,2.36 -3.519,5.453 -2.371,8.262 1.137,3.563 9.477,31.859 9.477,31.859 0,0 -22.543,-4.754 -27.274,-5.937 -3.547,-1.149 -4.746,1.183 -5.929,3.539 -1.192,2.398 -7.118,15.363 -7.118,15.363 0,0 -24.91,-28.316 -26.074,-29.496 -4.723,-3.531 -9.484,0 -8.301,4.735 0,4.71 13.055,61.292 13.055,61.292 0,0 -14.238,-8.207 -18.961,-10.57 -3.539,-2.359 -5.965,-2.359 -8.293,2.363 -2.363,3.5 -20.176,37.739 -20.176,37.739 v 0" /><path
         id="path16"
         style="fill:#ec1e27;fill-opacity:1;fill-rule:evenodd;stroke:none"
         d="M 143.449,32.2813 V 317.164 H 0 V 32.2813 h 143.449 v 0" /><path
         id="path18"
         style="fill:#ec1e27;fill-opacity:1;fill-rule:evenodd;stroke:none"
         d="M 573.785,32.2813 V 317.164 H 430.34 V 32.2813 h 143.445 v 0" /><path
         id="path20"
         style="fill:#211d1d;fill-opacity:1;fill-rule:nonzero;stroke:none"
         d="m 900.535,283.055 c -1.808,16.672 -12.91,23.859 -28.926,23.859 -13.078,0 -26.152,-4.738 -26.152,-19.937 0,-14.379 18.633,-16.504 37.422,-20.758 18.633,-4.246 37.266,-10.781 37.266,-33.66 0,-24.84 -24.356,-34.813 -45.598,-34.813 -26.152,0 -48.211,12.75 -48.211,41.184 h 14.707 c 0,-19.61 16.348,-28.106 33.992,-28.106 14.055,0 29.582,4.41 29.582,21.242 0,16.016 -18.633,18.793 -37.258,22.879 -18.632,4.086 -37.429,9.477 -37.429,30.891 0,23.695 21.082,34.152 42.332,34.152 23.859,0 41.992,-11.277 42.98,-36.933 h -14.707" /><path
         id="path22"
         style="fill:#211d1d;fill-opacity:1;fill-rule:nonzero;stroke:none"
         d="m 995.309,250.859 c -0.653,13.239 -10.625,23.864 -24.356,23.864 -14.539,0 -23.203,-10.953 -24.18,-23.864 z m 13.401,-23.531 c -3.76,-18.633 -17.159,-28.765 -36.116,-28.765 -26.973,0 -39.715,18.632 -40.535,44.453 0,25.332 16.668,43.961 39.714,43.961 29.907,0 39.057,-27.946 38.247,-48.375 h -63.247 c -0.496,-14.707 7.844,-27.778 26.309,-27.778 11.438,0 19.445,5.551 21.895,16.504 h 13.733" /><path
         id="path24"
         style="fill:#211d1d;fill-opacity:1;fill-rule:nonzero;stroke:none"
         d="m 1023.89,285.016 h 13.08 v -17.813 h 0.32 c 6.7,13.563 16.02,20.262 31.06,19.774 V 272.27 c -22.4,0 -30.57,-12.75 -30.57,-34.157 v -37.586 h -13.89 v 84.489" /><path
         id="path26"
         style="fill:#211d1d;fill-opacity:1;fill-rule:nonzero;stroke:none"
         d="M 1116.87,200.527 H 1102 l -31.38,84.489 h 15.53 l 23.7,-70.438 h 0.32 l 23.05,70.438 h 14.54 l -30.89,-84.489" /><path
         id="path28"
         style="fill:#211d1d;fill-opacity:1;fill-rule:nonzero;stroke:none"
         d="m 1161.32,285.016 h 13.88 v -84.489 h -13.88 z m 13.88,15.199 h -13.88 v 16.996 h 13.88 v -16.996" /><path
         id="path30"
         style="fill:#211d1d;fill-opacity:1;fill-rule:nonzero;stroke:none"
         d="m 1254.13,257.891 c -2.13,10.621 -9.48,16.832 -20.92,16.832 -20.11,0 -26.31,-15.856 -26.31,-33.016 0,-15.519 7.02,-30.883 24.67,-30.883 13.41,0 21.42,7.84 23.21,20.59 H 1269 c -3.1,-20.59 -16.01,-32.851 -37.26,-32.851 -25.83,0 -39.56,17.98 -39.56,43.144 0,25.332 13.08,45.27 39.89,45.27 19.12,0 34.48,-8.989 36.43,-29.086 h -14.37" /><path
         id="path32"
         style="fill:#211d1d;fill-opacity:1;fill-rule:nonzero;stroke:none"
         d="m 1343.18,250.859 c -0.65,13.239 -10.62,23.864 -24.36,23.864 -14.54,0 -23.2,-10.953 -24.17,-23.864 z m 13.4,-23.531 c -3.76,-18.633 -17.16,-28.765 -36.11,-28.765 -26.98,0 -39.72,18.632 -40.54,44.453 0,25.332 16.67,43.961 39.72,43.961 29.9,0 39.05,-27.946 38.24,-48.375 h -63.24 c -0.5,-14.707 7.84,-27.778 26.3,-27.778 11.44,0 19.45,5.551 21.9,16.504 h 13.73" /><path
         id="path34"
         style="fill:#211d1d;fill-opacity:1;fill-rule:nonzero;stroke:none"
         d="m 1380.75,227.164 c 0.49,-12.418 11.28,-16.34 22.71,-16.34 8.67,0 20.43,1.957 20.43,12.582 0,10.789 -13.73,12.586 -27.61,15.692 -13.73,3.105 -27.62,7.679 -27.62,23.855 0,16.996 16.83,24.024 31.54,24.024 18.62,0 33.5,-5.883 34.64,-26.473 h -13.89 c -0.98,10.785 -10.46,14.219 -19.61,14.219 -8.34,0 -17.97,-2.293 -17.97,-10.789 0,-9.969 14.7,-11.602 27.61,-14.707 13.89,-3.106 27.62,-7.68 27.62,-24.024 0,-20.101 -18.79,-26.64 -35.95,-26.64 -18.96,0 -34.98,7.683 -35.79,28.601 h 13.89" /><path
         id="path36"
         style="fill:#211d1d;fill-opacity:1;fill-rule:nonzero;stroke:none"
         d="m 1539.09,274.723 c -18.62,0 -25.82,-16.016 -25.82,-31.871 0,-16.664 7.52,-32.028 26.64,-32.028 18.95,0 25.33,16.176 25.33,32.68 0,15.855 -8.17,31.219 -26.15,31.219 z m -39.22,10.293 h 13.9 v -11.438 h 0.32 c 4.58,9.313 15.36,13.399 26.96,13.399 25.99,0 38.9,-20.59 38.9,-44.454 0,-23.859 -12.75,-43.96 -38.57,-43.96 -8.66,0 -21.08,3.273 -27.29,13.238 h -0.32 v -43.633 h -13.9 v 116.848" /><path
         id="path38"
         style="fill:#211d1d;fill-opacity:1;fill-rule:nonzero;stroke:none"
         d="m 1666.22,200.527 h -13.07 v 13.399 h -0.33 c -5.88,-10.461 -15.36,-15.363 -27.45,-15.363 -22.23,0 -29.09,12.75 -29.09,30.89 v 55.563 h 13.88 v -57.2 c 0,-10.293 6.55,-16.992 17.17,-16.992 16.83,0 25,11.274 25,26.469 v 47.723 h 13.89 v -84.489" /><path
         id="path40"
         style="fill:#211d1d;fill-opacity:1;fill-rule:nonzero;stroke:none"
         d="m 1726.83,274.723 c -18.62,0 -25.82,-16.016 -25.82,-31.871 0,-16.664 7.52,-32.028 26.64,-32.028 18.96,0 25.34,16.176 25.34,32.68 0,15.855 -8.18,31.219 -26.16,31.219 z m -39.22,42.488 h 13.9 v -43.633 h 0.32 c 4.58,9.313 15.36,13.399 26.97,13.399 25.98,0 38.89,-20.59 38.89,-44.454 0,-23.859 -12.74,-43.96 -38.56,-43.96 -8.66,0 -21.09,3.273 -27.3,13.238 h -0.32 v -11.274 h -13.9 v 116.684" /><path
         id="path42"
         style="fill:#211d1d;fill-opacity:1;fill-rule:nonzero;stroke:none"
         d="m 1784.84,317.211 h 13.89 V 200.527 h -13.89 v 116.684" /><path
         id="path44"
         style="fill:#211d1d;fill-opacity:1;fill-rule:nonzero;stroke:none"
         d="M 1821.11,285.016 H 1835 v -84.489 h -13.89 z m 13.89,15.199 h -13.89 v 16.996 H 1835 v -16.996" /><path
         id="path46"
         style="fill:#211d1d;fill-opacity:1;fill-rule:nonzero;stroke:none"
         d="m 1913.92,257.891 c -2.13,10.621 -9.48,16.832 -20.92,16.832 -20.1,0 -26.3,-15.856 -26.3,-33.016 0,-15.519 7.02,-30.883 24.66,-30.883 13.41,0 21.42,7.84 23.22,20.59 h 14.22 c -3.11,-20.59 -16.02,-32.851 -37.27,-32.851 -25.82,0 -39.55,17.98 -39.55,43.144 0,25.332 13.08,45.27 39.88,45.27 19.12,0 34.48,-8.989 36.44,-29.086 h -14.38" /><path
         id="path48"
         style="fill:#211d1d;fill-opacity:1;fill-rule:nonzero;stroke:none"
         d="m 1952.8,227.164 c 0.49,-12.418 11.28,-16.34 22.71,-16.34 8.67,0 20.43,1.957 20.43,12.582 0,10.789 -13.73,12.586 -27.61,15.692 -13.73,3.105 -27.62,7.679 -27.62,23.855 0,16.996 16.83,24.024 31.54,24.024 18.63,0 33.5,-5.883 34.64,-26.473 H 1993 c -0.98,10.785 -10.45,14.219 -19.6,14.219 -8.34,0 -17.98,-2.293 -17.98,-10.789 0,-9.969 14.7,-11.602 27.61,-14.707 13.89,-3.106 27.62,-7.68 27.62,-24.024 0,-20.101 -18.79,-26.64 -35.95,-26.64 -18.96,0 -34.98,7.683 -35.79,28.601 h 13.89" /><path
         id="path50"
         style="fill:#211d1d;fill-opacity:1;fill-rule:nonzero;stroke:none"
         d="m 2130.1,250.859 c -0.65,13.239 -10.62,23.864 -24.35,23.864 -14.54,0 -23.2,-10.953 -24.18,-23.864 z m 13.4,-23.531 c -3.76,-18.633 -17.16,-28.765 -36.11,-28.765 -26.97,0 -39.72,18.632 -40.54,44.453 0,25.332 16.67,43.961 39.72,43.961 29.9,0 39.05,-27.946 38.24,-48.375 h -63.24 c -0.5,-14.707 7.84,-27.778 26.31,-27.778 11.43,0 19.44,5.551 21.89,16.504 h 13.73" /><path
         id="path52"
         style="fill:#211d1d;fill-opacity:1;fill-rule:nonzero;stroke:none"
         d="m 2178.46,285.016 h 16.83 v -12.258 h -16.83 v -52.457 c 0,-6.375 1.8,-7.52 10.46,-7.52 h 6.37 v -12.254 h -10.62 c -14.38,0 -20.1,2.938 -20.1,18.465 v 53.766 h -14.38 v 12.258 h 14.38 v 25.332 h 13.89 v -25.332" /><path
         id="path54"
         style="fill:#211d1d;fill-opacity:1;fill-rule:nonzero;stroke:none"
         d="m 853.141,80.5664 h 39.543 L 873.238,134.98 h -0.332 z m 11.601,68.4726 h 17.16 L 927.496,32.3594 H 910.34 L 897.586,67.4883 H 848.238 L 835.164,32.3594 h -16.016 l 45.594,116.6796" /><path
         id="path56"
         style="fill:#211d1d;fill-opacity:1;fill-rule:nonzero;stroke:none"
         d="m 976.344,106.547 c -18.621,0 -25.821,-16.0197 -25.821,-31.8712 0,-16.6641 7.52,-32.0235 26.641,-32.0235 18.957,0 25.336,16.1797 25.336,32.6797 0,15.8477 -8.176,31.215 -26.156,31.215 z m -39.219,10.293 h 13.898 v -11.434 h 0.321 c 4.582,9.309 15.363,13.399 26.965,13.399 25.981,0 38.891,-20.5941 38.891,-44.4495 0,-23.8516 -12.74,-43.961 -38.559,-43.961 -8.664,0 -21.086,3.2696 -27.297,13.2422 h -0.321 V 0.00390625 H 937.125 V 116.84" /><path
         id="path58"
         style="fill:#211d1d;fill-opacity:1;fill-rule:nonzero;stroke:none"
         d="m 1073.24,106.547 c -18.62,0 -25.82,-16.0197 -25.82,-31.8712 0,-16.6641 7.52,-32.0235 26.64,-32.0235 18.95,0 25.33,16.1797 25.33,32.6797 0,15.8477 -8.17,31.215 -26.15,31.215 z m -39.22,10.293 h 13.9 v -11.434 h 0.32 c 4.58,9.309 15.36,13.399 26.96,13.399 25.99,0 38.9,-20.5941 38.9,-44.4495 0,-23.8516 -12.75,-43.961 -38.57,-43.961 -8.66,0 -21.08,3.2696 -27.29,13.2422 h -0.32 V 0.00390625 h -13.9 V 116.84" /><path
         id="path60"
         style="fill:#211d1d;fill-opacity:1;fill-rule:nonzero;stroke:none"
         d="m 1129.94,116.84 h 13.07 V 99.0313 h 0.33 c 6.7,13.5627 16.01,20.2577 31.05,19.7737 v -14.707 c -22.39,0 -30.57,-12.7503 -30.57,-34.1566 v -37.582 h -13.88 V 116.84" /><path
         id="path62"
         style="fill:#211d1d;fill-opacity:1;fill-rule:nonzero;stroke:none"
         d="m 1218.35,42.6523 c 14.54,0 26.31,11.4454 26.31,31.8594 0,20.5938 -11.77,32.0353 -26.31,32.0353 -14.55,0 -26.31,-11.4415 -26.31,-32.0353 0,-20.414 11.76,-31.8594 26.31,-31.8594 z m 0,76.1527 c 26.79,0 41.01,-19.4495 41.01,-44.2933 0,-24.664 -14.22,-44.1172 -41.01,-44.1172 -26.81,0 -41.03,19.4532 -41.03,44.1172 0,24.8438 14.22,44.2933 41.03,44.2933" /><path
         id="path64"
         style="fill:#211d1d;fill-opacity:1;fill-rule:nonzero;stroke:none"
         d="m 1313.77,32.3594 h -14.88 l -31.37,84.4806 h 15.52 l 23.7,-70.4298 h 0.33 l 23.04,70.4298 h 14.54 l -30.88,-84.4806" /><path
         id="path66"
         style="fill:#211d1d;fill-opacity:1;fill-rule:nonzero;stroke:none"
         d="m 1358.21,116.84 h 13.89 V 32.3594 h -13.89 z m 13.89,15.199 h -13.89 v 17 h 13.89 v -17" /><path
         id="path68"
         style="fill:#211d1d;fill-opacity:1;fill-rule:nonzero;stroke:none"
         d="m 1402.15,58.9961 c 0.49,-12.418 11.28,-16.3438 22.72,-16.3438 8.66,0 20.43,1.961 20.43,12.586 0,10.7773 -13.73,12.5742 -27.62,15.6797 -13.73,3.1054 -27.61,7.6836 -27.61,23.8672 0,16.9918 16.82,24.0198 31.54,24.0198 18.62,0 33.49,-5.887 34.64,-26.473 h -13.89 c -0.99,10.781 -10.46,14.215 -19.61,14.215 -8.34,0 -17.98,-2.289 -17.98,-10.7853 0,-9.9726 14.71,-11.6015 27.62,-14.707 13.89,-3.1055 27.62,-7.6875 27.62,-24.0195 0,-20.0977 -18.79,-26.6407 -35.95,-26.6407 -18.97,0 -34.98,7.6836 -35.79,28.6016 h 13.88" /><path
         id="path70"
         style="fill:#211d1d;fill-opacity:1;fill-rule:nonzero;stroke:none"
         d="m 1476.18,116.84 h 13.89 V 32.3594 h -13.89 z m 13.89,15.199 h -13.89 v 17 h 13.89 v -17" /><path
         id="path72"
         style="fill:#211d1d;fill-opacity:1;fill-rule:nonzero;stroke:none"
         d="m 1548.07,42.6523 c 14.54,0 26.31,11.4454 26.31,31.8594 0,20.5938 -11.77,32.0353 -26.31,32.0353 -14.55,0 -26.31,-11.4415 -26.31,-32.0353 0,-20.414 11.76,-31.8594 26.31,-31.8594 z m 0,76.1527 c 26.8,0 41.02,-19.4495 41.02,-44.2933 0,-24.664 -14.22,-44.1172 -41.02,-44.1172 -26.8,0 -41.02,19.4532 -41.02,44.1172 0,24.8438 14.22,44.2933 41.02,44.2933" /><path
         id="path74"
         style="fill:#211d1d;fill-opacity:1;fill-rule:nonzero;stroke:none"
         d="m 1605.42,116.84 h 13.07 v -13.399 h 0.33 c 5.88,10.461 15.36,15.364 27.46,15.364 22.21,0 29.08,-12.75 29.08,-30.887 V 32.3594 h -13.89 v 57.1914 c 0,10.293 -6.53,16.9962 -17.16,16.9962 -16.83,0 -25.01,-11.2736 -25.01,-26.4806 v -47.707 h -13.88 V 116.84" /><path
         id="path76"
         style="fill:#211d1d;fill-opacity:1;fill-rule:nonzero;stroke:none"
         d="m 1696.27,116.84 h 13.07 v -13.399 h 0.32 c 5.89,10.461 15.37,15.364 27.47,15.364 22.21,0 29.08,-12.75 29.08,-30.887 V 32.3594 h -13.89 v 57.1914 c 0,10.293 -6.53,16.9962 -17.16,16.9962 -16.83,0 -25.01,-11.2736 -25.01,-26.4806 v -47.707 h -13.88 V 116.84" /><path
         id="path78"
         style="fill:#211d1d;fill-opacity:1;fill-rule:nonzero;stroke:none"
         d="m 1845.79,82.6836 c -0.66,13.2422 -10.63,23.8634 -24.36,23.8634 -14.54,0 -23.2,-10.9532 -24.18,-23.8634 z m 13.4,-23.5273 c -3.76,-18.625 -17.16,-28.7618 -36.12,-28.7618 -26.97,0 -39.71,18.6328 -40.53,44.4493 0,25.3322 16.67,43.9612 39.71,43.9612 29.9,0 39.06,-27.9456 38.24,-48.3753 h -63.24 c -0.5,-14.7031 7.84,-27.7774 26.31,-27.7774 11.44,0 19.44,5.5547 21.9,16.504 h 13.73" /><path
         id="path80"
         style="fill:#211d1d;fill-opacity:1;fill-rule:nonzero;stroke:none"
         d="m 1874.86,116.84 h 13.08 v -12.418 h 0.32 c 6.21,9.48 15.69,14.383 27.29,14.383 10.3,0 19.78,-4.09 23.21,-14.383 5.72,8.984 15.69,14.383 26.47,14.383 16.84,0 28.11,-7.028 28.11,-24.5198 V 32.3594 h -13.89 v 55.3945 c 0,10.457 -2.77,18.7931 -16.34,18.7931 -13.41,0 -22.07,-8.5001 -22.07,-21.5782 V 32.3594 h -13.89 v 55.3945 c 0,10.9453 -3.42,18.7931 -15.84,18.7931 -16.51,0 -22.56,-15.1993 -22.56,-21.5782 V 32.3594 h -13.89 V 116.84" /><path
         id="path82"
         style="fill:#211d1d;fill-opacity:1;fill-rule:nonzero;stroke:none"
         d="m 2072.92,82.6836 c -0.66,13.2422 -10.63,23.8634 -24.36,23.8634 -14.54,0 -23.2,-10.9532 -24.18,-23.8634 z m 13.4,-23.5273 c -3.76,-18.625 -17.16,-28.7618 -36.12,-28.7618 -26.97,0 -39.71,18.6328 -40.54,44.4493 0,25.3322 16.67,43.9612 39.72,43.9612 29.9,0 39.05,-27.9456 38.24,-48.3753 h -63.24 c -0.5,-14.7031 7.84,-27.7774 26.31,-27.7774 11.44,0 19.44,5.5547 21.89,16.504 h 13.74" /><path
         id="path84"
         style="fill:#211d1d;fill-opacity:1;fill-rule:nonzero;stroke:none"
         d="m 2101.99,116.84 h 13.08 v -13.399 h 0.32 c 5.89,10.461 15.36,15.364 27.46,15.364 22.22,0 29.08,-12.75 29.08,-30.887 V 32.3594 h -13.89 v 57.1914 c 0,10.293 -6.53,16.9962 -17.15,16.9962 -16.84,0 -25.01,-11.2736 -25.01,-26.4806 v -47.707 h -13.89 V 116.84" /><path
         id="path86"
         style="fill:#211d1d;fill-opacity:1;fill-rule:nonzero;stroke:none"
         d="m 2212.13,116.84 h 16.82 v -12.254 h -16.82 V 52.1328 c 0,-6.375 1.79,-7.5195 10.45,-7.5195 h 6.37 V 32.3594 h -10.61 c -14.39,0 -20.11,2.9375 -20.11,18.4648 v 53.7618 h -14.38 v 12.254 h 14.38 v 25.332 h 13.9 V 116.84" /><path
         id="path88"
         style="fill:#211d1d;fill-opacity:1;fill-rule:nonzero;stroke:none"
         d="m 2374.07,113.902 c -3.27,16.504 -16.5,24.836 -32.69,24.836 -27.78,0 -39.55,-22.875 -39.55,-47.2263 0,-26.6328 11.77,-48.8594 39.72,-48.8594 20.43,0 32.19,14.3829 33.66,33.6641 h 15.53 c -2.94,-29.0859 -21.09,-46.7305 -50.5,-46.7305 -36.28,0 -53.92,26.7969 -53.92,60.7852 0,33.8239 19.27,61.4449 55.23,61.4449 24.35,0 44.45,-13.078 48.05,-37.914 h -15.53" /><path
         id="path90"
         style="fill:#211d1d;fill-opacity:1;fill-rule:nonzero;stroke:none"
         d="m 2460.02,75.9844 c -5.39,-3.9258 -15.85,-4.0821 -25.17,-5.7227 -9.15,-1.6289 -16.99,-4.8945 -16.99,-15.1875 0,-9.1523 7.84,-12.4219 16.34,-12.4219 18.3,0 25.82,11.4454 25.82,19.1211 z m 22.55,-43.3047 c -2.46,-1.4649 -5.56,-2.2852 -9.97,-2.2852 -7.19,0 -11.76,3.9258 -11.76,13.0782 -7.69,-8.9844 -17.98,-13.0782 -29.75,-13.0782 -15.36,0 -27.95,6.8672 -27.95,23.7032 0,19.1132 14.22,23.1953 28.6,25.9687 15.37,2.9492 28.44,1.9649 28.44,12.4219 0,12.0977 -9.97,14.0587 -18.8,14.0587 -11.76,0 -20.43,-3.598 -21.07,-16.0197 h -13.9 c 0.82,20.9217 17,28.2777 35.79,28.2777 15.2,0 31.7,-3.434 31.7,-23.2112 v -43.461 c 0,-6.543 0,-9.4805 4.42,-9.4805 1.14,0 2.45,0.1641 4.25,0.8204 v -10.793" /><path
         id="path92"
         style="fill:#211d1d;fill-opacity:1;fill-rule:nonzero;stroke:none"
         d="m 2495.47,116.84 h 13.07 v -13.399 h 0.32 c 5.89,10.461 15.37,15.364 27.46,15.364 22.22,0 29.09,-12.75 29.09,-30.887 V 32.3594 h -13.89 v 57.1914 c 0,10.293 -6.53,16.9962 -17.16,16.9962 -16.83,0 -25.01,-11.2736 -25.01,-26.4806 v -47.707 h -13.88 V 116.84" /><path
         id="path94"
         style="fill:#211d1d;fill-opacity:1;fill-rule:nonzero;stroke:none"
         d="m 2638.61,75.9844 c -5.39,-3.9258 -15.85,-4.0821 -25.17,-5.7227 -9.15,-1.6289 -16.99,-4.8945 -16.99,-15.1875 0,-9.1523 7.84,-12.4219 16.34,-12.4219 18.3,0 25.82,11.4454 25.82,19.1211 z m 22.55,-43.3047 c -2.45,-1.4649 -5.56,-2.2852 -9.96,-2.2852 -7.2,0 -11.77,3.9258 -11.77,13.0782 -7.69,-8.9844 -17.98,-13.0782 -29.75,-13.0782 -15.36,0 -27.94,6.8672 -27.94,23.7032 0,19.1132 14.21,23.1953 28.6,25.9687 15.36,2.9492 28.44,1.9649 28.44,12.4219 0,12.0977 -9.97,14.0587 -18.8,14.0587 -11.77,0 -20.43,-3.598 -21.08,-16.0197 h -13.89 c 0.82,20.9217 17,28.2777 35.79,28.2777 15.19,0 31.7,-3.434 31.7,-23.2112 v -43.461 c 0,-6.543 0,-9.4805 4.41,-9.4805 1.14,0 2.45,0.1641 4.25,0.8204 v -10.793" /><path
         id="path96"
         style="fill:#211d1d;fill-opacity:1;fill-rule:nonzero;stroke:none"
         d="m 2710.34,42.6523 c 18.63,0 25.82,16.0118 25.82,31.8594 0,16.668 -7.52,32.0353 -26.64,32.0353 -18.96,0 -25.32,-16.1759 -25.32,-32.6798 0,-15.8555 8.16,-31.2149 26.14,-31.2149 z m 39.22,-10.2929 h -13.89 V 43.793 h -0.33 c -4.57,-9.3047 -15.36,-13.3985 -26.96,-13.3985 -25.99,0 -38.9,20.5977 -38.9,44.4493 0,23.8554 12.75,43.9612 38.57,43.9612 8.67,0 21.08,-3.27 27.29,-13.239 h 0.33 v 43.473 h 13.89 V 32.3594" /><path
         id="path98"
         style="fill:#211d1d;fill-opacity:1;fill-rule:nonzero;stroke:none"
         d="m 2823.25,75.9844 c -5.39,-3.9258 -15.85,-4.0821 -25.17,-5.7227 -9.15,-1.6289 -16.99,-4.8945 -16.99,-15.1875 0,-9.1523 7.84,-12.4219 16.34,-12.4219 18.3,0 25.82,11.4454 25.82,19.1211 z m 22.55,-43.3047 c -2.45,-1.4649 -5.56,-2.2852 -9.96,-2.2852 -7.2,0 -11.77,3.9258 -11.77,13.0782 -7.69,-8.9844 -17.98,-13.0782 -29.75,-13.0782 -15.36,0 -27.95,6.8672 -27.95,23.7032 0,19.1132 14.22,23.1953 28.61,25.9687 15.36,2.9492 28.43,1.9649 28.43,12.4219 0,12.0977 -9.97,14.0587 -18.79,14.0587 -11.77,0 -20.43,-3.598 -21.08,-16.0197 h -13.89 c 0.82,20.9217 16.99,28.2777 35.79,28.2777 15.19,0 31.7,-3.434 31.7,-23.2112 v -43.461 c 0,-6.543 0,-9.4805 4.41,-9.4805 1.14,0 2.45,0.1641 4.25,0.8204 v -10.793" /><path
         id="path100"
         style="fill:#211d1d;fill-opacity:1;fill-rule:nonzero;stroke:none"
         d="m 3106.69,261.27 h 30.39 c 17.49,-0.161 25.5,7.519 25.5,21.41 0,13.89 -8.01,21.406 -25.5,21.406 h -30.39 z m -15.53,55.894 h 51.15 c 23.2,0 35.79,-12.91 35.79,-34.484 0,-21.571 -12.59,-34.649 -35.79,-34.481 h -35.62 v -47.722 h -15.53 v 116.687" /><path
         id="path102"
         style="fill:#211d1d;fill-opacity:1;fill-rule:nonzero;stroke:none"
         d="m 3264.7,200.477 h -13.07 v 13.398 h -0.33 c -5.88,-10.457 -15.37,-15.359 -27.46,-15.359 -22.22,0 -29.09,12.75 -29.09,30.886 v 55.563 h 13.9 V 227.77 c 0,-10.293 6.53,-16.993 17.16,-16.993 16.82,0 25,11.274 25,26.469 v 47.719 h 13.89 v -84.488" /><path
         id="path104"
         style="fill:#211d1d;fill-opacity:1;fill-rule:nonzero;stroke:none"
         d="m 3325.32,274.672 c -18.63,0 -25.82,-16.016 -25.82,-31.871 0,-16.664 7.52,-32.024 26.64,-32.024 18.95,0 25.33,16.176 25.33,32.68 0,15.856 -8.17,31.215 -26.15,31.215 z m -39.22,42.492 h 13.89 v -43.633 h 0.33 c 4.57,9.309 15.36,13.399 26.96,13.399 25.99,0 38.9,-20.594 38.9,-44.453 0,-23.86 -12.75,-43.961 -38.58,-43.961 -8.65,0 -21.07,3.269 -27.28,13.238 h -0.33 v -11.277 h -13.89 v 116.687" /><path
         id="path106"
         style="fill:#211d1d;fill-opacity:1;fill-rule:nonzero;stroke:none"
         d="m 3383.32,317.164 h 13.89 V 200.477 h -13.89 v 116.687" /><path
         id="path108"
         style="fill:#211d1d;fill-opacity:1;fill-rule:nonzero;stroke:none"
         d="m 3419.6,284.965 h 13.88 v -84.488 h -13.88 z m 13.88,15.199 h -13.88 v 17 h 13.88 v -17" /><path
         id="path110"
         style="fill:#211d1d;fill-opacity:1;fill-rule:nonzero;stroke:none"
         d="m 3512.42,257.84 c -2.13,10.621 -9.48,16.832 -20.92,16.832 -20.11,0 -26.32,-15.856 -26.32,-33.012 0,-15.523 7.03,-30.883 24.68,-30.883 13.4,0 21.41,7.84 23.2,20.59 h 14.22 c -3.1,-20.59 -16.01,-32.851 -37.25,-32.851 -25.82,0 -39.55,17.976 -39.55,43.144 0,25.332 13.07,45.27 39.87,45.27 19.12,0 34.48,-8.992 36.44,-29.09 h -14.37" /><path
         id="path112"
         style="fill:#211d1d;fill-opacity:1;fill-rule:nonzero;stroke:none"
         d="m 3658,283.008 c -1.79,16.668 -12.91,23.855 -28.92,23.855 -13.08,0 -26.15,-4.734 -26.15,-19.933 0,-14.383 18.63,-16.504 37.43,-20.758 18.62,-4.25 37.25,-10.781 37.25,-33.664 0,-24.836 -24.34,-34.809 -45.59,-34.809 -26.14,0 -48.21,12.75 -48.21,41.184 h 14.71 c 0,-19.61 16.34,-28.106 33.99,-28.106 14.05,0 29.58,4.407 29.58,21.239 0,16.015 -18.64,18.793 -37.26,22.882 -18.63,4.086 -37.42,9.477 -37.42,30.887 0,23.695 21.07,34.156 42.32,34.156 23.86,0 42.01,-11.281 42.98,-36.933 H 3658" /><path
         id="path114"
         style="fill:#211d1d;fill-opacity:1;fill-rule:nonzero;stroke:none"
         d="m 3752.77,250.809 c -0.65,13.238 -10.61,23.863 -24.35,23.863 -14.54,0 -23.2,-10.953 -24.18,-23.863 z m 13.41,-23.528 c -3.76,-18.633 -17.16,-28.765 -36.12,-28.765 -26.97,0 -39.71,18.632 -40.53,44.453 0,25.332 16.67,43.961 39.71,43.961 29.91,0 39.06,-27.946 38.24,-48.375 h -63.24 c -0.49,-14.707 7.85,-27.778 26.31,-27.778 11.44,0 19.45,5.551 21.9,16.504 h 13.73" /><path
         id="path116"
         style="fill:#211d1d;fill-opacity:1;fill-rule:nonzero;stroke:none"
         d="m 3781.36,284.965 h 13.07 v -17.813 h 0.33 c 6.7,13.567 16.02,20.266 31.05,19.778 v -14.707 c -22.39,0 -30.56,-12.75 -30.56,-34.157 v -37.589 h -13.89 v 84.488" /><path
         id="path118"
         style="fill:#211d1d;fill-opacity:1;fill-rule:nonzero;stroke:none"
         d="m 3874.34,200.477 h -14.87 l -31.38,84.488 h 15.53 l 23.69,-70.434 h 0.33 l 23.04,70.434 h 14.55 l -30.89,-84.488" /><path
         id="path120"
         style="fill:#211d1d;fill-opacity:1;fill-rule:nonzero;stroke:none"
         d="m 3918.79,284.965 h 13.88 v -84.488 h -13.88 z m 13.88,15.199 h -13.88 v 17 h 13.88 v -17" /><path
         id="path122"
         style="fill:#211d1d;fill-opacity:1;fill-rule:nonzero;stroke:none"
         d="m 4011.61,257.84 c -2.13,10.621 -9.48,16.832 -20.92,16.832 -20.11,0 -26.32,-15.856 -26.32,-33.012 0,-15.523 7.03,-30.883 24.68,-30.883 13.4,0 21.41,7.84 23.2,20.59 h 14.22 c -3.1,-20.59 -16.01,-32.851 -37.25,-32.851 -25.82,0 -39.56,17.976 -39.56,43.144 0,25.332 13.08,45.27 39.88,45.27 19.12,0 34.48,-8.992 36.44,-29.09 h -14.37" /><path
         id="path124"
         style="fill:#211d1d;fill-opacity:1;fill-rule:nonzero;stroke:none"
         d="m 4100.65,250.809 c -0.65,13.238 -10.61,23.863 -24.34,23.863 -14.55,0 -23.21,-10.953 -24.19,-23.863 z m 13.41,-23.528 c -3.76,-18.633 -17.16,-28.765 -36.12,-28.765 -26.97,0 -39.71,18.632 -40.53,44.453 0,25.332 16.67,43.961 39.72,43.961 29.9,0 39.05,-27.946 38.23,-48.375 h -63.24 c -0.49,-14.707 7.85,-27.778 26.31,-27.778 11.44,0 19.45,5.551 21.9,16.504 h 13.73" /><path
         id="path126"
         style="fill:#211d1d;fill-opacity:1;fill-rule:nonzero;stroke:none"
         d="m 4138.23,227.113 c 0.49,-12.418 11.28,-16.336 22.71,-16.336 8.67,0 20.43,1.957 20.43,12.582 0,10.786 -13.73,12.582 -27.61,15.688 -13.73,3.105 -27.62,7.68 -27.62,23.859 0,16.996 16.83,24.024 31.53,24.024 18.64,0 33.51,-5.887 34.65,-26.477 h -13.89 c -0.98,10.785 -10.45,14.219 -19.61,14.219 -8.33,0 -17.97,-2.289 -17.97,-10.785 0,-9.973 14.7,-11.602 27.61,-14.707 13.89,-3.106 27.62,-7.68 27.62,-24.024 0,-20.101 -18.8,-26.64 -35.96,-26.64 -18.95,0 -34.97,7.679 -35.78,28.597 h 13.89" /><path
         id="path128"
         style="fill:#211d1d;fill-opacity:1;fill-rule:nonzero;stroke:none"
         d="m 4309.16,244.109 c -5.39,-3.918 -15.85,-4.086 -25.17,-5.714 -9.15,-1.637 -17,-4.903 -17,-15.204 0,-9.148 7.85,-12.414 16.35,-12.414 18.3,0 25.82,11.434 25.82,19.114 z m 22.55,-43.304 c -2.46,-1.469 -5.56,-2.289 -9.97,-2.289 -7.19,0 -11.77,3.925 -11.77,13.074 -7.68,-8.988 -17.97,-13.074 -29.74,-13.074 -15.36,0 -27.95,6.863 -27.95,23.695 0,19.121 14.22,23.207 28.61,25.988 15.36,2.938 28.42,1.957 28.42,12.414 0,12.098 -9.96,14.059 -18.79,14.059 -11.76,0 -20.43,-3.598 -21.08,-16.016 h -13.89 c 0.82,20.918 17,28.274 35.79,28.274 15.2,0 31.7,-3.434 31.7,-23.211 v -43.465 c 0,-6.539 0,-9.477 4.42,-9.477 1.14,0 2.45,0.161 4.25,0.813 v -10.785" /><path
         id="path130"
         style="fill:#211d1d;fill-opacity:1;fill-rule:nonzero;stroke:none"
         d="m 4344.61,284.965 h 13.07 v -13.399 h 0.32 c 5.88,10.461 15.37,15.364 27.46,15.364 22.22,0 29.09,-12.75 29.09,-30.891 v -55.562 h -13.89 v 57.199 c 0,10.297 -6.54,16.996 -17.16,16.996 -16.83,0 -25.01,-11.277 -25.01,-26.473 v -47.722 h -13.88 v 84.488" /><path
         id="path132"
         style="fill:#211d1d;fill-opacity:1;fill-rule:nonzero;stroke:none"
         d="m 4471.74,210.777 c 18.63,0 25.82,16.008 25.82,31.864 0,16.672 -7.51,32.031 -26.64,32.031 -18.96,0 -25.33,-16.18 -25.33,-32.684 0,-15.851 8.18,-31.211 26.15,-31.211 z m 39.22,-10.3 h -13.89 v 11.441 h -0.33 c -4.58,-9.316 -15.36,-13.402 -26.97,-13.402 -25.97,0 -38.88,20.589 -38.88,44.453 0,23.855 12.74,43.961 38.56,43.961 8.66,0 21.08,-3.27 27.29,-13.239 h 0.33 v 43.473 h 13.89 V 200.477" /><path
         id="path134"
         style="fill:#211d1d;fill-opacity:1;fill-rule:nonzero;stroke:none"
         d="m 3106.69,93.0938 h 30.39 c 17.49,-0.1641 25.5,7.5192 25.5,21.4142 0,13.89 -8.01,21.406 -25.5,21.406 h -30.39 z m -15.53,55.8942 h 51.15 c 23.2,0 35.79,-12.91 35.79,-34.48 0,-21.5783 -12.59,-34.6447 -35.79,-34.4885 h -35.62 V 32.3008 h -15.53 V 148.988" /><path
         id="path136"
         style="fill:#211d1d;fill-opacity:1;fill-rule:nonzero;stroke:none"
         d="m 3194.26,116.789 h 13.08 V 98.9844 h 0.32 c 6.7,13.5586 16.02,20.2576 31.06,19.7696 v -14.707 c -22.39,0 -30.57,-12.7501 -30.57,-34.1564 V 32.3008 h -13.89 v 84.4882" /><path
         id="path138"
         style="fill:#211d1d;fill-opacity:1;fill-rule:nonzero;stroke:none"
         d="m 3282.67,42.5938 c 14.54,0 26.31,11.4453 26.31,31.8671 0,20.5977 -11.77,32.0351 -26.31,32.0351 -14.54,0 -26.31,-11.4374 -26.31,-32.0351 0,-20.4218 11.77,-31.8671 26.31,-31.8671 z m 0,76.1602 c 26.8,0 41.02,-19.4493 41.02,-44.2931 0,-24.6718 -14.22,-44.125 -41.02,-44.125 -26.79,0 -41.01,19.4532 -41.01,44.125 0,24.8438 14.22,44.2931 41.01,44.2931" /><path
         id="path140"
         style="fill:#211d1d;fill-opacity:1;fill-rule:nonzero;stroke:none"
         d="m 3397.39,89.668 c -2.13,10.613 -9.48,16.828 -20.92,16.828 -20.11,0 -26.32,-15.8515 -26.32,-33.0116 0,-15.5313 7.03,-30.8906 24.68,-30.8906 13.4,0 21.41,7.8515 23.2,20.5937 h 14.22 c -3.1,-20.5937 -16.01,-32.8516 -37.25,-32.8516 -25.82,0 -39.55,17.9805 -39.55,43.1485 0,25.332 13.07,45.2696 39.87,45.2696 19.12,0 34.48,-8.988 36.44,-29.086 h -14.37" /><path
         id="path142"
         style="fill:#211d1d;fill-opacity:1;fill-rule:nonzero;stroke:none"
         d="m 3497.71,32.3008 h -13.07 v 13.3984 h -0.33 c -5.89,-10.4609 -15.36,-15.3633 -27.46,-15.3633 -22.21,0 -29.08,12.7422 -29.08,30.8907 v 55.5624 h 13.89 V 59.5938 c 0,-10.3047 6.54,-17 17.16,-17 16.83,0 25.01,11.2773 25.01,26.4765 v 47.7187 h 13.88 V 32.3008" /><path
         id="path144"
         style="fill:#211d1d;fill-opacity:1;fill-rule:nonzero;stroke:none"
         d="m 3518.13,116.789 h 13.08 V 98.9844 h 0.32 c 6.7,13.5586 16.02,20.2576 31.05,19.7696 v -14.707 c -22.39,0 -30.56,-12.7501 -30.56,-34.1564 V 32.3008 h -13.89 v 84.4882" /><path
         id="path146"
         style="fill:#211d1d;fill-opacity:1;fill-rule:nonzero;stroke:none"
         d="m 3628.77,82.6367 c -0.66,13.2422 -10.63,23.8593 -24.36,23.8593 -14.54,0 -23.2,-10.9491 -24.18,-23.8593 z m 13.39,-23.539 c -3.75,-18.625 -17.15,-28.7618 -36.11,-28.7618 -26.96,0 -39.72,18.6329 -40.53,44.4571 0,25.332 16.67,43.961 39.71,43.961 29.91,0 39.06,-27.9454 38.24,-48.3751 h -63.24 c -0.49,-14.7109 7.84,-27.7851 26.31,-27.7851 11.44,0 19.44,5.5546 21.89,16.5039 h 13.73" /><path
         id="path148"
         style="fill:#211d1d;fill-opacity:1;fill-rule:nonzero;stroke:none"
         d="m 3657.84,116.789 h 13.07 v -12.414 h 0.33 c 6.21,9.477 15.69,14.379 27.29,14.379 10.3,0 19.78,-4.086 23.21,-14.379 5.72,8.984 15.69,14.379 26.47,14.379 16.84,0 28.12,-7.027 28.12,-24.5157 V 32.3008 h -13.9 v 55.4023 c 0,10.461 -2.77,18.7929 -16.34,18.7929 -13.4,0 -22.06,-8.4999 -22.06,-21.5741 V 32.3008 h -13.9 v 55.4023 c 0,10.9492 -3.42,18.7929 -15.85,18.7929 -16.5,0 -22.54,-15.1991 -22.54,-21.5741 V 32.3008 h -13.9 v 84.4882" /><path
         id="path150"
         style="fill:#211d1d;fill-opacity:1;fill-rule:nonzero;stroke:none"
         d="m 3855.9,82.6367 c -0.66,13.2422 -10.63,23.8593 -24.36,23.8593 -14.54,0 -23.2,-10.9491 -24.18,-23.8593 z m 13.39,-23.539 c -3.76,-18.625 -17.15,-28.7618 -36.11,-28.7618 -26.96,0 -39.72,18.6329 -40.53,44.4571 0,25.332 16.67,43.961 39.71,43.961 29.91,0 39.06,-27.9454 38.24,-48.3751 h -63.24 c -0.49,-14.7109 7.84,-27.7851 26.31,-27.7851 11.43,0 19.44,5.5546 21.89,16.5039 h 13.73" /><path
         id="path152"
         style="fill:#211d1d;fill-opacity:1;fill-rule:nonzero;stroke:none"
         d="m 3884.97,116.789 h 13.07 v -13.394 h 0.33 c 5.88,10.457 15.37,15.359 27.46,15.359 22.22,0 29.09,-12.75 29.09,-30.8829 V 32.3008 h -13.9 V 89.5 c 0,10.293 -6.53,16.996 -17.16,16.996 -16.83,0 -25,-11.2733 -25,-26.4765 V 32.3008 h -13.89 v 84.4882" /><path
         id="path154"
         style="fill:#211d1d;fill-opacity:1;fill-rule:nonzero;stroke:none"
         d="m 3995.1,116.789 h 16.84 V 104.535 H 3995.1 V 52.0742 c 0,-6.375 1.8,-7.5195 10.46,-7.5195 h 6.38 V 32.3008 h -10.62 c -14.38,0 -20.1,2.9375 -20.1,18.4648 v 53.7694 h -14.39 v 12.254 h 14.39 v 25.332 h 13.88 v -25.332" /><path
         id="path156"
         style="fill:#211d1d;fill-opacity:1;fill-rule:nonzero;stroke:none"
         d="m 4157.05,113.852 c -3.27,16.503 -16.51,24.839 -32.69,24.839 -27.78,0 -39.55,-22.875 -39.55,-47.2262 0,-26.6445 11.77,-48.871 39.72,-48.871 20.42,0 32.19,14.3828 33.66,33.6757 h 15.53 c -2.95,-29.0976 -21.09,-46.7422 -50.5,-46.7422 -36.28,0 -53.94,26.7969 -53.94,60.793 0,33.8247 19.29,61.4457 55.25,61.4457 24.34,0 44.44,-13.075 48.04,-37.914 h -15.52" /><path
         id="path158"
         style="fill:#211d1d;fill-opacity:1;fill-rule:nonzero;stroke:none"
         d="m 4242.99,75.9375 c -5.4,-3.9258 -15.85,-4.082 -25.17,-5.7227 -9.15,-1.6328 -16.99,-4.9062 -16.99,-15.1992 0,-9.1523 7.84,-12.4218 16.33,-12.4218 18.31,0 25.83,11.4453 25.83,19.121 z m 22.55,-43.3164 c -2.45,-1.4648 -5.55,-2.2852 -9.97,-2.2852 -7.19,0 -11.76,3.9258 -11.76,13.0782 -7.69,-8.9844 -17.98,-13.0782 -29.75,-13.0782 -15.36,0 -27.94,6.8672 -27.94,23.7032 0,19.125 14.22,23.207 28.59,25.9804 15.37,2.9493 28.44,1.961 28.44,12.4219 0,12.0936 -9.97,14.0546 -18.79,14.0546 -11.77,0 -20.43,-3.598 -21.08,-16.0194 h -13.9 c 0.82,20.9254 17,28.2774 35.79,28.2774 15.21,0 31.71,-3.434 31.71,-23.2071 V 52.0742 c 0,-6.5429 0,-9.4804 4.42,-9.4804 1.14,0 2.45,0.164 4.24,0.8203 v -10.793" /><path
         id="path160"
         style="fill:#211d1d;fill-opacity:1;fill-rule:nonzero;stroke:none"
         d="m 4278.43,116.789 h 13.08 v -13.394 h 0.32 c 5.89,10.457 15.37,15.359 27.46,15.359 22.23,0 29.1,-12.75 29.1,-30.8829 V 32.3008 h -13.9 V 89.5 c 0,10.293 -6.53,16.996 -17.16,16.996 -16.84,0 -25,-11.2733 -25,-26.4765 V 32.3008 h -13.9 v 84.4882" /><path
         id="path162"
         style="fill:#211d1d;fill-opacity:1;fill-rule:nonzero;stroke:none"
         d="m 4421.59,75.9375 c -5.39,-3.9258 -15.85,-4.082 -25.17,-5.7227 -9.15,-1.6328 -17,-4.9062 -17,-15.1992 0,-9.1523 7.85,-12.4218 16.35,-12.4218 18.3,0 25.82,11.4453 25.82,19.121 z m 22.55,-43.3164 c -2.45,-1.4648 -5.56,-2.2852 -9.97,-2.2852 -7.19,0 -11.77,3.9258 -11.77,13.0782 -7.68,-8.9844 -17.97,-13.0782 -29.74,-13.0782 -15.36,0 -27.95,6.8672 -27.95,23.7032 0,19.125 14.22,23.207 28.61,25.9804 15.36,2.9493 28.42,1.961 28.42,12.4219 0,12.0936 -9.96,14.0546 -18.78,14.0546 -11.77,0 -20.43,-3.598 -21.09,-16.0194 h -13.88 c 0.82,20.9254 16.99,28.2774 35.79,28.2774 15.19,0 31.7,-3.434 31.7,-23.2071 V 52.0742 c 0,-6.5429 0,-9.4804 4.41,-9.4804 1.14,0 2.45,0.164 4.25,0.8203 v -10.793" /><path
         id="path164"
         style="fill:#211d1d;fill-opacity:1;fill-rule:nonzero;stroke:none"
         d="m 4493.32,42.5938 c 18.63,0 25.82,16.0156 25.82,31.8671 0,16.6719 -7.52,32.0351 -26.64,32.0351 -18.96,0 -25.34,-16.1757 -25.34,-32.6796 0,-15.8633 8.18,-31.2226 26.16,-31.2226 z m 39.22,-10.293 h -13.89 v 11.4336 h -0.33 c -4.57,-9.3047 -15.36,-13.3985 -26.97,-13.3985 -25.98,0 -38.89,20.5977 -38.89,44.4571 0,23.8593 12.74,43.961 38.57,43.961 8.65,0 21.08,-3.266 27.29,-13.238 h 0.33 v 43.472 h 13.89 V 32.3008" /><path
         id="path166"
         style="fill:#211d1d;fill-opacity:1;fill-rule:nonzero;stroke:none"
         d="m 4606.23,75.9375 c -5.39,-3.9258 -15.85,-4.082 -25.17,-5.7227 -9.15,-1.6328 -17,-4.9062 -17,-15.1992 0,-9.1523 7.85,-12.4218 16.35,-12.4218 18.3,0 25.82,11.4453 25.82,19.121 z m 22.55,-43.3164 c -2.45,-1.4648 -5.56,-2.2852 -9.97,-2.2852 -7.19,0 -11.77,3.9258 -11.77,13.0782 -7.68,-8.9844 -17.97,-13.0782 -29.74,-13.0782 -15.36,0 -27.95,6.8672 -27.95,23.7032 0,19.125 14.22,23.207 28.61,25.9804 15.36,2.9493 28.42,1.961 28.42,12.4219 0,12.0936 -9.96,14.0546 -18.79,14.0546 -11.76,0 -20.43,-3.598 -21.08,-16.0194 h -13.89 c 0.82,20.9254 17,28.2774 35.79,28.2774 15.2,0 31.7,-3.434 31.7,-23.2071 V 52.0742 c 0,-6.5429 0,-9.4804 4.42,-9.4804 1.14,0 2.45,0.164 4.25,0.8203 v -10.793" /></g></g></svg>