<?xml version="1.0" encoding="UTF-8" standalone="no"?>
<svg
   xmlns:dc="http://purl.org/dc/elements/1.1/"
   xmlns:cc="http://creativecommons.org/ns#"
   xmlns:rdf="http://www.w3.org/1999/02/22-rdf-syntax-ns#"
   xmlns:svg="http://www.w3.org/2000/svg"
   xmlns="http://www.w3.org/2000/svg"
   viewBox="0 0 617.32001 42.666668"
   height="42.666668"
   width="617.32001"
   xml:space="preserve"
   id="svg2"
   version="1.1"><metadata
     id="metadata8"><rdf:RDF><cc:Work
         rdf:about=""><dc:format>image/svg+xml</dc:format><dc:type
           rdf:resource="http://purl.org/dc/dcmitype/StillImage" /></cc:Work></rdf:RDF></metadata><defs
     id="defs6" /><g
     transform="matrix(1.3333333,0,0,-1.3333333,0,42.666667)"
     id="g10"><g
       transform="scale(0.1)"
       id="g12"><path
         id="path14"
         style="fill:#ec1e27;fill-opacity:1;fill-rule:evenodd;stroke:none"
         d="m 286.902,295.926 c 0,0 -17.769,-34.238 -20.125,-37.738 -2.382,-4.723 -4.738,-4.723 -8.32,-2.364 -4.746,2.364 -18.984,10.571 -18.984,10.571 0,0 13.078,-56.582 13.078,-61.293 1.16,-4.735 -3.586,-8.266 -8.328,-4.735 -1.172,1.18 -26.055,29.496 -26.055,29.496 0,0 -5.93,-12.965 -7.145,-15.359 -1.168,-2.359 -2.339,-4.691 -5.921,-3.543 -4.739,1.184 -27.282,5.937 -27.282,5.937 0,0 8.34,-28.296 9.512,-31.859 1.137,-2.809 2.363,-5.902 -2.383,-8.262 l -8.265,-3.547 c 0,0 48.578,-42.554 49.769,-43.703 2.383,-2.363 4.758,-3.582 2.383,-10.675 -2.383,-7.106 -4.746,-16.641 -4.746,-16.641 0,0 45.043,9.535 49.789,10.727 4.148,0.445 8.668,-1.192 8.668,-5.911 0,-4.816 -2.774,-53.4059 -2.774,-53.4059 h 14.258 c 0,0 -2.758,48.5899 -2.758,53.4059 0,4.719 4.508,6.356 8.688,5.911 4.754,-1.192 49.773,-10.727 49.773,-10.727 0,0 -2.367,9.535 -4.765,16.641 -2.367,7.093 0,8.312 2.398,10.675 1.18,1.149 49.781,43.703 49.781,43.703 l -8.277,3.547 c -4.758,2.36 -3.519,5.453 -2.375,8.262 1.141,3.563 9.481,31.859 9.481,31.859 0,0 -22.547,-4.753 -27.282,-5.937 -3.539,-1.148 -4.742,1.184 -5.922,3.543 -1.191,2.394 -7.121,15.359 -7.121,15.359 0,0 -24.906,-28.316 -26.074,-29.496 -4.726,-3.531 -9.48,0 -8.301,4.735 0,4.711 13.051,61.293 13.051,61.293 0,0 -14.23,-8.207 -18.953,-10.571 -3.547,-2.359 -5.973,-2.359 -8.301,2.364 -2.359,3.5 -20.172,37.738 -20.172,37.738 v 0" /><path
         id="path16"
         style="fill:#ec1e27;fill-opacity:1;fill-rule:evenodd;stroke:none"
         d="M 143.445,32.3125 V 317.203 H 0 V 32.3125 h 143.445 v 0" /><path
         id="path18"
         style="fill:#ec1e27;fill-opacity:1;fill-rule:evenodd;stroke:none"
         d="M 573.781,32.3125 V 317.203 H 430.336 V 32.3125 h 143.445 v 0" /><path
         id="path20"
         style="fill:#211d1d;fill-opacity:1;fill-rule:nonzero;stroke:none"
         d="m 2684.59,283.055 c -1.8,16.672 -12.91,23.859 -28.92,23.859 -13.08,0 -26.15,-4.738 -26.15,-19.937 0,-14.379 18.63,-16.504 37.42,-20.758 18.63,-4.246 37.26,-10.781 37.26,-33.66 0,-24.84 -24.35,-34.809 -45.59,-34.809 -26.16,0 -48.22,12.746 -48.22,41.18 h 14.71 c 0,-19.61 16.35,-28.106 34,-28.106 14.05,0 29.58,4.41 29.58,21.242 0,16.016 -18.64,18.793 -37.26,22.879 -18.63,4.086 -37.43,9.477 -37.43,30.891 0,23.695 21.08,34.152 42.33,34.152 23.86,0 41.99,-11.277 42.98,-36.933 h -14.71" /><path
         id="path22"
         style="fill:#211d1d;fill-opacity:1;fill-rule:nonzero;stroke:none"
         d="m 2779.37,250.859 c -0.66,13.239 -10.63,23.864 -24.36,23.864 -14.54,0 -23.2,-10.953 -24.18,-23.864 z m 13.4,-23.531 c -3.76,-18.633 -17.16,-28.765 -36.12,-28.765 -26.97,0 -39.71,18.632 -40.53,44.453 0,25.332 16.67,43.961 39.71,43.961 29.91,0 39.06,-27.946 38.25,-48.375 h -63.25 c -0.49,-14.707 7.85,-27.778 26.31,-27.778 11.44,0 19.45,5.555 21.9,16.504 h 13.73" /><path
         id="path24"
         style="fill:#211d1d;fill-opacity:1;fill-rule:nonzero;stroke:none"
         d="m 2807.95,285.016 h 13.08 v -17.813 h 0.32 c 6.7,13.563 16.02,20.262 31.06,19.774 V 272.27 c -22.4,0 -30.57,-12.75 -30.57,-34.157 v -37.586 h -13.89 v 84.489" /><path
         id="path26"
         style="fill:#211d1d;fill-opacity:1;fill-rule:nonzero;stroke:none"
         d="m 2900.93,200.527 h -14.87 l -31.38,84.489 h 15.53 l 23.7,-70.438 h 0.32 l 23.05,70.438 h 14.54 l -30.89,-84.489" /><path
         id="path28"
         style="fill:#211d1d;fill-opacity:1;fill-rule:nonzero;stroke:none"
         d="m 2945.37,285.016 h 13.89 v -84.489 h -13.89 z m 13.89,15.199 h -13.89 v 16.996 h 13.89 v -16.996" /><path
         id="path30"
         style="fill:#211d1d;fill-opacity:1;fill-rule:nonzero;stroke:none"
         d="m 3038.19,257.891 c -2.13,10.621 -9.49,16.832 -20.92,16.832 -20.11,0 -26.31,-15.856 -26.31,-33.016 0,-15.519 7.02,-30.883 24.67,-30.883 13.41,0 21.41,7.844 23.21,20.59 h 14.22 c -3.11,-20.59 -16.02,-32.851 -37.27,-32.851 -25.82,0 -39.55,17.98 -39.55,43.144 0,25.332 13.08,45.27 39.89,45.27 19.12,0 34.48,-8.989 36.43,-29.086 h -14.37" /><path
         id="path32"
         style="fill:#211d1d;fill-opacity:1;fill-rule:nonzero;stroke:none"
         d="m 3127.24,250.859 c -0.65,13.239 -10.63,23.864 -24.36,23.864 -14.54,0 -23.2,-10.953 -24.18,-23.864 z m 13.4,-23.531 c -3.76,-18.633 -17.16,-28.765 -36.12,-28.765 -26.97,0 -39.71,18.632 -40.53,44.453 0,25.332 16.67,43.961 39.71,43.961 29.91,0 39.06,-27.946 38.25,-48.375 h -63.25 c -0.49,-14.707 7.85,-27.778 26.31,-27.778 11.44,0 19.45,5.555 21.9,16.504 h 13.73" /><path
         id="path34"
         style="fill:#211d1d;fill-opacity:1;fill-rule:nonzero;stroke:none"
         d="m 3164.81,227.164 c 0.49,-12.418 11.28,-16.34 22.71,-16.34 8.66,0 20.43,1.957 20.43,12.582 0,10.789 -13.73,12.586 -27.61,15.692 -13.74,3.105 -27.62,7.679 -27.62,23.855 0,16.996 16.82,24.024 31.54,24.024 18.62,0 33.5,-5.883 34.64,-26.473 h -13.89 c -0.98,10.785 -10.46,14.219 -19.61,14.219 -8.34,0 -17.97,-2.293 -17.97,-10.789 0,-9.969 14.7,-11.602 27.61,-14.707 13.89,-3.106 27.62,-7.68 27.62,-24.024 0,-20.101 -18.79,-26.64 -35.95,-26.64 -18.96,0 -34.98,7.683 -35.79,28.601 h 13.89" /><path
         id="path36"
         style="fill:#211d1d;fill-opacity:1;fill-rule:nonzero;stroke:none"
         d="m 3323.15,274.723 c -18.63,0 -25.82,-16.016 -25.82,-31.871 0,-16.664 7.52,-32.028 26.64,-32.028 18.95,0 25.33,16.176 25.33,32.68 0,15.855 -8.17,31.219 -26.15,31.219 z m -39.22,10.293 h 13.9 v -11.438 h 0.32 c 4.58,9.313 15.36,13.399 26.96,13.399 25.99,0 38.9,-20.59 38.9,-44.454 0,-23.855 -12.75,-43.96 -38.57,-43.96 -8.66,0 -21.08,3.273 -27.29,13.238 h -0.32 v -43.633 h -13.9 v 116.848" /><path
         id="path38"
         style="fill:#211d1d;fill-opacity:1;fill-rule:nonzero;stroke:none"
         d="m 3450.28,200.527 h -13.07 v 13.399 h -0.33 c -5.88,-10.457 -15.36,-15.363 -27.45,-15.363 -22.23,0 -29.09,12.75 -29.09,30.89 v 55.563 h 13.88 v -57.2 c 0,-10.293 6.55,-16.992 17.17,-16.992 16.83,0 25,11.274 25,26.469 v 47.723 h 13.89 v -84.489" /><path
         id="path40"
         style="fill:#211d1d;fill-opacity:1;fill-rule:nonzero;stroke:none"
         d="m 3510.89,274.723 c -18.62,0 -25.82,-16.016 -25.82,-31.871 0,-16.664 7.52,-32.028 26.64,-32.028 18.96,0 25.33,16.176 25.33,32.68 0,15.855 -8.17,31.219 -26.15,31.219 z m -39.22,42.488 h 13.9 v -43.633 h 0.32 c 4.58,9.313 15.36,13.399 26.96,13.399 25.99,0 38.9,-20.59 38.9,-44.454 0,-23.855 -12.74,-43.96 -38.56,-43.96 -8.67,0 -21.09,3.273 -27.3,13.238 h -0.32 v -11.274 h -13.9 v 116.684" /><path
         id="path42"
         style="fill:#211d1d;fill-opacity:1;fill-rule:nonzero;stroke:none"
         d="m 3568.9,317.211 h 13.89 V 200.527 h -13.89 v 116.684" /><path
         id="path44"
         style="fill:#211d1d;fill-opacity:1;fill-rule:nonzero;stroke:none"
         d="m 3605.17,285.016 h 13.89 v -84.489 h -13.89 z m 13.89,15.199 h -13.89 v 16.996 h 13.89 v -16.996" /><path
         id="path46"
         style="fill:#211d1d;fill-opacity:1;fill-rule:nonzero;stroke:none"
         d="m 3697.98,257.891 c -2.13,10.621 -9.48,16.832 -20.92,16.832 -20.1,0 -26.3,-15.856 -26.3,-33.016 0,-15.519 7.02,-30.883 24.66,-30.883 13.41,0 21.42,7.844 23.22,20.59 h 14.21 c -3.1,-20.59 -16.01,-32.851 -37.26,-32.851 -25.82,0 -39.55,17.98 -39.55,43.144 0,25.332 13.07,45.27 39.88,45.27 19.12,0 34.48,-8.989 36.44,-29.086 h -14.38" /><path
         id="path48"
         style="fill:#211d1d;fill-opacity:1;fill-rule:nonzero;stroke:none"
         d="m 3736.86,227.164 c 0.49,-12.418 11.28,-16.34 22.71,-16.34 8.67,0 20.43,1.957 20.43,12.582 0,10.789 -13.73,12.586 -27.61,15.692 -13.73,3.105 -27.62,7.679 -27.62,23.855 0,16.996 16.83,24.024 31.54,24.024 18.62,0 33.5,-5.883 34.64,-26.473 h -13.89 c -0.98,10.785 -10.46,14.219 -19.61,14.219 -8.34,0 -17.97,-2.293 -17.97,-10.789 0,-9.969 14.7,-11.602 27.61,-14.707 13.89,-3.106 27.62,-7.68 27.62,-24.024 0,-20.101 -18.79,-26.64 -35.95,-26.64 -18.96,0 -34.98,7.683 -35.79,28.601 h 13.89" /><path
         id="path50"
         style="fill:#211d1d;fill-opacity:1;fill-rule:nonzero;stroke:none"
         d="m 3914.16,250.859 c -0.65,13.239 -10.62,23.864 -24.35,23.864 -14.54,0 -23.21,-10.953 -24.18,-23.864 z m 13.4,-23.531 c -3.76,-18.633 -17.16,-28.765 -36.11,-28.765 -26.97,0 -39.72,18.632 -40.54,44.453 0,25.332 16.67,43.961 39.72,43.961 29.9,0 39.05,-27.946 38.24,-48.375 h -63.24 c -0.5,-14.707 7.84,-27.778 26.31,-27.778 11.43,0 19.44,5.555 21.89,16.504 h 13.73" /><path
         id="path52"
         style="fill:#211d1d;fill-opacity:1;fill-rule:nonzero;stroke:none"
         d="m 3962.52,285.016 h 16.83 v -12.258 h -16.83 v -52.457 c 0,-6.375 1.8,-7.52 10.46,-7.52 h 6.37 v -12.254 h -10.62 c -14.38,0 -20.1,2.942 -20.1,18.465 v 53.766 h -14.38 v 12.258 h 14.38 v 25.332 h 13.89 v -25.332" /><path
         id="path54"
         style="fill:#211d1d;fill-opacity:1;fill-rule:nonzero;stroke:none"
         d="m 2637.2,80.5664 h 39.54 L 2657.3,134.98 h -0.33 z m 11.6,68.4726 h 17.16 l 45.6,-116.6874 h -17.16 l -12.76,35.1367 h -49.34 l -13.08,-35.1367 h -16.01 l 45.59,116.6874" /><path
         id="path56"
         style="fill:#211d1d;fill-opacity:1;fill-rule:nonzero;stroke:none"
         d="m 2760.4,106.547 c -18.62,0 -25.82,-16.0197 -25.82,-31.8712 0,-16.668 7.52,-32.0313 26.64,-32.0313 18.96,0 25.34,16.1836 25.34,32.6875 0,15.8477 -8.18,31.215 -26.16,31.215 z m -39.22,10.293 h 13.9 v -11.434 h 0.32 c 4.58,9.313 15.37,13.399 26.97,13.399 25.98,0 38.89,-20.5902 38.89,-44.4495 0,-23.8594 -12.74,-43.9649 -38.56,-43.9649 -8.66,0 -21.09,3.2696 -27.3,13.2422 h -0.32 V 0 h -13.9 v 116.84" /><path
         id="path58"
         style="fill:#211d1d;fill-opacity:1;fill-rule:nonzero;stroke:none"
         d="m 2857.3,106.547 c -18.62,0 -25.82,-16.0197 -25.82,-31.8712 0,-16.668 7.52,-32.0313 26.64,-32.0313 18.95,0 25.33,16.1836 25.33,32.6875 0,15.8477 -8.17,31.215 -26.15,31.215 z m -39.22,10.293 h 13.9 v -11.434 h 0.32 c 4.58,9.313 15.36,13.399 26.96,13.399 25.99,0 38.9,-20.5902 38.9,-44.4495 0,-23.8594 -12.75,-43.9649 -38.57,-43.9649 -8.66,0 -21.08,3.2696 -27.29,13.2422 h -0.32 V 0 h -13.9 v 116.84" /><path
         id="path60"
         style="fill:#211d1d;fill-opacity:1;fill-rule:nonzero;stroke:none"
         d="m 2914,116.84 h 13.07 V 99.0313 h 0.33 c 6.7,13.5627 16.01,20.2617 31.05,19.7737 v -14.707 c -22.39,0 -30.57,-12.7503 -30.57,-34.1566 V 32.3516 H 2914 V 116.84" /><path
         id="path62"
         style="fill:#211d1d;fill-opacity:1;fill-rule:nonzero;stroke:none"
         d="m 3002.41,42.6445 c 14.54,0 26.3,11.4493 26.3,31.8672 0,20.5938 -11.76,32.0353 -26.3,32.0353 -14.56,0 -26.31,-11.4415 -26.31,-32.0353 0,-20.4179 11.75,-31.8672 26.31,-31.8672 z m 0,76.1605 c 26.79,0 41.01,-19.4495 41.01,-44.2933 0,-24.6679 -14.22,-44.1211 -41.01,-44.1211 -26.81,0 -41.03,19.4532 -41.03,44.1211 0,24.8438 14.22,44.2933 41.03,44.2933" /><path
         id="path64"
         style="fill:#211d1d;fill-opacity:1;fill-rule:nonzero;stroke:none"
         d="m 3097.83,32.3516 h -14.88 l -31.37,84.4884 h 15.52 l 23.7,-70.4337 h 0.33 l 23.04,70.4337 h 14.54 l -30.88,-84.4884" /><path
         id="path66"
         style="fill:#211d1d;fill-opacity:1;fill-rule:nonzero;stroke:none"
         d="m 3142.27,116.84 h 13.89 V 32.3516 h -13.89 z m 13.89,15.199 h -13.89 v 17 h 13.89 v -17" /><path
         id="path68"
         style="fill:#211d1d;fill-opacity:1;fill-rule:nonzero;stroke:none"
         d="m 3186.21,58.9922 c 0.49,-12.4219 11.28,-16.3477 22.72,-16.3477 8.66,0 20.43,1.9649 20.43,12.5899 0,10.7812 -13.73,12.5781 -27.62,15.6836 -13.73,3.1054 -27.62,7.6836 -27.62,23.8672 0,16.9918 16.83,24.0198 31.55,24.0198 18.62,0 33.49,-5.883 34.64,-26.4691 h -13.89 c -0.99,10.7771 -10.46,14.2111 -19.61,14.2111 -8.34,0 -17.98,-2.289 -17.98,-10.7853 0,-9.9726 14.71,-11.6015 27.62,-14.707 13.89,-3.1055 27.62,-7.6875 27.62,-24.0234 0,-20.0977 -18.79,-26.6407 -35.95,-26.6407 -18.97,0 -34.98,7.6836 -35.79,28.6016 h 13.88" /><path
         id="path70"
         style="fill:#211d1d;fill-opacity:1;fill-rule:nonzero;stroke:none"
         d="m 3260.24,116.84 h 13.88 V 32.3516 h -13.88 z m 13.88,15.199 h -13.88 v 17 h 13.88 v -17" /><path
         id="path72"
         style="fill:#211d1d;fill-opacity:1;fill-rule:nonzero;stroke:none"
         d="m 3332.13,42.6445 c 14.54,0 26.31,11.4493 26.31,31.8672 0,20.5938 -11.77,32.0353 -26.31,32.0353 -14.55,0 -26.31,-11.4415 -26.31,-32.0353 0,-20.4179 11.76,-31.8672 26.31,-31.8672 z m 0,76.1605 c 26.8,0 41.02,-19.4495 41.02,-44.2933 0,-24.6679 -14.22,-44.1211 -41.02,-44.1211 -26.8,0 -41.02,19.4532 -41.02,44.1211 0,24.8438 14.22,44.2933 41.02,44.2933" /><path
         id="path74"
         style="fill:#211d1d;fill-opacity:1;fill-rule:nonzero;stroke:none"
         d="m 3389.48,116.84 h 13.07 v -13.399 h 0.32 c 5.89,10.461 15.37,15.364 27.47,15.364 22.21,0 29.08,-12.75 29.08,-30.8831 V 32.3516 h -13.89 v 57.1992 c 0,10.293 -6.53,16.9962 -17.16,16.9962 -16.83,0 -25.01,-11.2736 -25.01,-26.4806 V 32.3516 h -13.88 V 116.84" /><path
         id="path76"
         style="fill:#211d1d;fill-opacity:1;fill-rule:nonzero;stroke:none"
         d="m 3480.33,116.84 h 13.07 v -13.399 h 0.32 c 5.89,10.461 15.37,15.364 27.46,15.364 22.22,0 29.09,-12.75 29.09,-30.8831 V 32.3516 h -13.89 v 57.1992 c 0,10.293 -6.53,16.9962 -17.16,16.9962 -16.83,0 -25.01,-11.2736 -25.01,-26.4806 V 32.3516 h -13.88 V 116.84" /><path
         id="path78"
         style="fill:#211d1d;fill-opacity:1;fill-rule:nonzero;stroke:none"
         d="m 3629.85,82.6836 c -0.66,13.2422 -10.63,23.8634 -24.36,23.8634 -14.54,0 -23.2,-10.9532 -24.18,-23.8634 z m 13.4,-23.5352 c -3.76,-18.6211 -17.16,-28.7578 -36.12,-28.7578 -26.97,0 -39.71,18.6328 -40.53,44.4532 0,25.3322 16.67,43.9612 39.71,43.9612 29.9,0 39.05,-27.9456 38.24,-48.3753 h -63.24 c -0.5,-14.707 7.84,-27.7852 26.31,-27.7852 11.44,0 19.44,5.5586 21.9,16.5039 h 13.73" /><path
         id="path80"
         style="fill:#211d1d;fill-opacity:1;fill-rule:nonzero;stroke:none"
         d="M 3658.92,116.84 H 3672 v -12.414 h 0.32 c 6.21,9.476 15.69,14.379 27.29,14.379 10.3,0 19.78,-4.086 23.21,-14.379 5.72,8.98 15.69,14.379 26.47,14.379 16.84,0 28.11,-7.028 28.11,-24.5198 V 32.3516 h -13.89 v 55.4023 c 0,10.4609 -2.77,18.7931 -16.34,18.7931 -13.41,0 -22.07,-8.5001 -22.07,-21.5782 V 32.3516 h -13.89 v 55.4023 c 0,10.9453 -3.42,18.7931 -15.85,18.7931 -16.5,0 -22.55,-15.1993 -22.55,-21.5782 V 32.3516 h -13.89 V 116.84" /><path
         id="path82"
         style="fill:#211d1d;fill-opacity:1;fill-rule:nonzero;stroke:none"
         d="m 3856.98,82.6836 c -0.66,13.2422 -10.63,23.8634 -24.36,23.8634 -14.54,0 -23.2,-10.9532 -24.18,-23.8634 z m 13.39,-23.5352 c -3.76,-18.6211 -17.15,-28.7578 -36.11,-28.7578 -26.97,0 -39.72,18.6328 -40.54,44.4532 0,25.3322 16.67,43.9612 39.72,43.9612 29.9,0 39.05,-27.9456 38.24,-48.3753 h -63.24 c -0.5,-14.707 7.84,-27.7852 26.31,-27.7852 11.43,0 19.44,5.5586 21.89,16.5039 h 13.73" /><path
         id="path84"
         style="fill:#211d1d;fill-opacity:1;fill-rule:nonzero;stroke:none"
         d="m 3886.05,116.84 h 13.07 v -13.399 h 0.33 c 5.89,10.461 15.36,15.364 27.46,15.364 22.21,0 29.08,-12.75 29.08,-30.8831 V 32.3516 h -13.89 v 57.1992 c 0,10.293 -6.53,16.9962 -17.16,16.9962 -16.83,0 -25.01,-11.2736 -25.01,-26.4806 V 32.3516 h -13.88 V 116.84" /><path
         id="path86"
         style="fill:#211d1d;fill-opacity:1;fill-rule:nonzero;stroke:none"
         d="m 3996.18,116.84 h 16.83 v -12.254 h -16.83 V 52.1289 c 0,-6.375 1.8,-7.5195 10.46,-7.5195 h 6.37 V 32.3516 h -10.61 c -14.39,0 -20.11,2.9414 -20.11,18.4687 v 53.7657 h -14.38 v 12.254 h 14.38 v 25.332 h 13.89 V 116.84" /><path
         id="path88"
         style="fill:#211d1d;fill-opacity:1;fill-rule:nonzero;stroke:none"
         d="m 4158.13,113.902 c -3.27,16.504 -16.51,24.836 -32.69,24.836 -27.78,0 -39.55,-22.875 -39.55,-47.2263 0,-26.6406 11.77,-48.8672 39.72,-48.8672 20.43,0 32.19,14.3868 33.66,33.6719 h 15.53 c -2.94,-29.0898 -21.09,-46.7383 -50.5,-46.7383 -36.28,0 -53.93,26.8008 -53.93,60.793 0,33.8239 19.28,61.4449 55.24,61.4449 24.34,0 44.45,-13.078 48.05,-37.914 h -15.53" /><path
         id="path90"
         style="fill:#211d1d;fill-opacity:1;fill-rule:nonzero;stroke:none"
         d="m 4244.08,75.9844 c -5.4,-3.9258 -15.85,-4.0821 -25.17,-5.7227 -9.15,-1.6289 -16.99,-4.9023 -16.99,-15.1953 0,-9.1484 7.84,-12.4219 16.34,-12.4219 18.3,0 25.82,11.4493 25.82,19.1211 z m 22.54,-43.3086 c -2.45,-1.4649 -5.55,-2.2852 -9.96,-2.2852 -7.19,0 -11.76,3.9258 -11.76,13.0782 -7.69,-8.9883 -17.98,-13.0782 -29.75,-13.0782 -15.36,0 -27.95,6.8672 -27.95,23.7032 0,19.121 14.22,23.2031 28.6,25.9726 15.37,2.9492 28.44,1.9649 28.44,12.4219 0,12.0977 -9.97,14.0587 -18.8,14.0587 -11.76,0 -20.43,-3.598 -21.07,-16.0197 h -13.9 c 0.82,20.9217 17,28.2777 35.79,28.2777 15.2,0 31.7,-3.434 31.7,-23.2112 V 52.1289 c 0,-6.543 0,-9.4844 4.42,-9.4844 1.14,0 2.45,0.168 4.24,0.8243 v -10.793" /><path
         id="path92"
         style="fill:#211d1d;fill-opacity:1;fill-rule:nonzero;stroke:none"
         d="m 4279.52,116.84 h 13.08 v -13.399 h 0.32 c 5.89,10.461 15.36,15.364 27.46,15.364 22.22,0 29.09,-12.75 29.09,-30.8831 V 32.3516 h -13.89 v 57.1992 c 0,10.293 -6.53,16.9962 -17.16,16.9962 -16.83,0 -25.01,-11.2736 -25.01,-26.4806 V 32.3516 h -13.89 V 116.84" /><path
         id="path94"
         style="fill:#211d1d;fill-opacity:1;fill-rule:nonzero;stroke:none"
         d="m 4422.67,75.9844 c -5.39,-3.9258 -15.85,-4.0821 -25.17,-5.7227 -9.15,-1.6289 -16.99,-4.9023 -16.99,-15.1953 0,-9.1484 7.84,-12.4219 16.34,-12.4219 18.3,0 25.82,11.4493 25.82,19.1211 z m 22.55,-43.3086 c -2.45,-1.4649 -5.56,-2.2852 -9.96,-2.2852 -7.2,0 -11.77,3.9258 -11.77,13.0782 -7.69,-8.9883 -17.98,-13.0782 -29.75,-13.0782 -15.36,0 -27.95,6.8672 -27.95,23.7032 0,19.121 14.22,23.2031 28.61,25.9726 15.36,2.9492 28.44,1.9649 28.44,12.4219 0,12.0977 -9.98,14.0587 -18.8,14.0587 -11.77,0 -20.43,-3.598 -21.08,-16.0197 h -13.89 c 0.82,20.9217 17,28.2777 35.79,28.2777 15.19,0 31.7,-3.434 31.7,-23.2112 V 52.1289 c 0,-6.543 0,-9.4844 4.41,-9.4844 1.14,0 2.45,0.168 4.25,0.8243 v -10.793" /><path
         id="path96"
         style="fill:#211d1d;fill-opacity:1;fill-rule:nonzero;stroke:none"
         d="m 4494.4,42.6445 c 18.63,0 25.82,16.0157 25.82,31.8672 0,16.668 -7.52,32.0353 -26.64,32.0353 -18.96,0 -25.32,-16.1759 -25.32,-32.6798 0,-15.8594 8.16,-31.2227 26.14,-31.2227 z m 39.22,-10.2929 h -13.89 v 11.4375 h -0.33 c -4.57,-9.3086 -15.36,-13.3985 -26.97,-13.3985 -25.98,0 -38.89,20.5938 -38.89,44.4532 0,23.8554 12.75,43.9612 38.57,43.9612 8.66,0 21.08,-3.27 27.29,-13.239 h 0.33 v 43.473 h 13.89 V 32.3516" /><path
         id="path98"
         style="fill:#211d1d;fill-opacity:1;fill-rule:nonzero;stroke:none"
         d="m 4607.31,75.9844 c -5.39,-3.9258 -15.85,-4.0821 -25.17,-5.7227 -9.15,-1.6289 -16.99,-4.9023 -16.99,-15.1953 0,-9.1484 7.84,-12.4219 16.34,-12.4219 18.3,0 25.82,11.4493 25.82,19.1211 z m 22.55,-43.3086 c -2.45,-1.4649 -5.56,-2.2852 -9.96,-2.2852 -7.2,0 -11.77,3.9258 -11.77,13.0782 -7.69,-8.9883 -17.98,-13.0782 -29.75,-13.0782 -15.36,0 -27.95,6.8672 -27.95,23.7032 0,19.121 14.22,23.2031 28.61,25.9726 15.36,2.9492 28.43,1.9649 28.43,12.4219 0,12.0977 -9.97,14.0587 -18.79,14.0587 -11.77,0 -20.43,-3.598 -21.08,-16.0197 h -13.9 c 0.82,20.9217 17,28.2777 35.8,28.2777 15.19,0 31.69,-3.434 31.69,-23.2112 V 52.1289 c 0,-6.543 0,-9.4844 4.42,-9.4844 1.14,0 2.45,0.168 4.25,0.8243 v -10.793" /><path
         id="path100"
         style="fill:#211d1d;fill-opacity:1;fill-rule:nonzero;stroke:none"
         d="m 842.27,261.316 h 30.394 c 17.484,-0.16 25.492,7.52 25.492,21.414 0,13.891 -8.008,21.407 -25.492,21.407 H 842.27 Z m -15.524,55.895 h 51.149 c 23.207,0 35.789,-12.91 35.789,-34.481 0,-21.574 -12.582,-34.648 -35.789,-34.484 H 842.27 v -47.719 h -15.524 v 116.684" /><path
         id="path102"
         style="fill:#211d1d;fill-opacity:1;fill-rule:nonzero;stroke:none"
         d="m 1000.29,200.527 h -13.079 v 13.399 h -0.328 c -5.883,-10.457 -15.36,-15.363 -27.457,-15.363 -22.219,0 -29.086,12.75 -29.086,30.89 v 55.563 h 13.89 v -57.2 c 0,-10.293 6.54,-16.992 17.161,-16.992 16.832,0 25.004,11.274 25.004,26.469 v 47.723 h 13.895 v -84.489" /><path
         id="path104"
         style="fill:#211d1d;fill-opacity:1;fill-rule:nonzero;stroke:none"
         d="m 1060.91,274.723 c -18.64,0 -25.82,-16.016 -25.82,-31.871 0,-16.664 7.51,-32.028 26.63,-32.028 18.96,0 25.33,16.176 25.33,32.68 0,15.855 -8.17,31.219 -26.14,31.219 z m -39.23,42.488 h 13.89 v -43.633 h 0.33 c 4.58,9.313 15.36,13.399 26.97,13.399 25.98,0 38.89,-20.59 38.89,-44.454 0,-23.855 -12.74,-43.96 -38.57,-43.96 -8.66,0 -21.08,3.273 -27.29,13.238 h -0.33 v -11.274 h -13.89 v 116.684" /><path
         id="path106"
         style="fill:#211d1d;fill-opacity:1;fill-rule:nonzero;stroke:none"
         d="m 1118.9,317.211 h 13.9 V 200.527 h -13.9 v 116.684" /><path
         id="path108"
         style="fill:#211d1d;fill-opacity:1;fill-rule:nonzero;stroke:none"
         d="m 1155.18,285.016 h 13.89 v -84.489 h -13.89 z m 13.89,15.199 h -13.89 v 16.996 h 13.89 v -16.996" /><path
         id="path110"
         style="fill:#211d1d;fill-opacity:1;fill-rule:nonzero;stroke:none"
         d="m 1248,257.891 c -2.13,10.621 -9.48,16.832 -20.92,16.832 -20.1,0 -26.31,-15.856 -26.31,-33.016 0,-15.519 7.03,-30.883 24.68,-30.883 13.4,0 21.4,7.844 23.2,20.59 h 14.22 c -3.11,-20.59 -16.02,-32.851 -37.26,-32.851 -25.82,0 -39.55,17.98 -39.55,43.144 0,25.332 13.07,45.27 39.88,45.27 19.12,0 34.48,-8.989 36.44,-29.086 H 1248" /><path
         id="path112"
         style="fill:#211d1d;fill-opacity:1;fill-rule:nonzero;stroke:none"
         d="m 1393.59,283.055 c -1.8,16.672 -12.91,23.859 -28.93,23.859 -13.07,0 -26.15,-4.738 -26.15,-19.937 0,-14.379 18.64,-16.504 37.43,-20.758 18.63,-4.246 37.26,-10.781 37.26,-33.66 0,-24.84 -24.35,-34.809 -45.59,-34.809 -26.15,0 -48.22,12.746 -48.22,41.18 h 14.72 c 0,-19.61 16.33,-28.106 33.98,-28.106 14.06,0 29.58,4.41 29.58,21.242 0,16.016 -18.63,18.793 -37.26,22.879 -18.62,4.086 -37.42,9.477 -37.42,30.891 0,23.695 21.08,34.152 42.33,34.152 23.85,0 42,-11.277 42.97,-36.933 h -14.7" /><path
         id="path114"
         style="fill:#211d1d;fill-opacity:1;fill-rule:nonzero;stroke:none"
         d="m 1488.36,250.859 c -0.66,13.239 -10.62,23.864 -24.35,23.864 -14.54,0 -23.21,-10.953 -24.19,-23.864 z m 13.4,-23.531 c -3.76,-18.633 -17.16,-28.765 -36.12,-28.765 -26.96,0 -39.71,18.632 -40.52,44.453 0,25.332 16.67,43.961 39.71,43.961 29.9,0 39.06,-27.946 38.24,-48.375 h -63.25 c -0.49,-14.707 7.85,-27.778 26.32,-27.778 11.43,0 19.44,5.555 21.89,16.504 h 13.73" /><path
         id="path116"
         style="fill:#211d1d;fill-opacity:1;fill-rule:nonzero;stroke:none"
         d="m 1516.95,285.016 h 13.07 v -17.813 h 0.33 c 6.69,13.563 16.01,20.262 31.05,19.774 V 272.27 c -22.39,0 -30.57,-12.75 -30.57,-34.157 v -37.586 h -13.88 v 84.489" /><path
         id="path118"
         style="fill:#211d1d;fill-opacity:1;fill-rule:nonzero;stroke:none"
         d="m 1609.93,200.527 h -14.87 l -31.38,84.489 h 15.52 l 23.7,-70.438 h 0.33 l 23.04,70.438 h 14.54 l -30.88,-84.489" /><path
         id="path120"
         style="fill:#211d1d;fill-opacity:1;fill-rule:nonzero;stroke:none"
         d="m 1654.37,285.016 h 13.89 v -84.489 h -13.89 z m 13.89,15.199 h -13.89 v 16.996 h 13.89 v -16.996" /><path
         id="path122"
         style="fill:#211d1d;fill-opacity:1;fill-rule:nonzero;stroke:none"
         d="m 1747.19,257.891 c -2.13,10.621 -9.48,16.832 -20.92,16.832 -20.1,0 -26.31,-15.856 -26.31,-33.016 0,-15.519 7.03,-30.883 24.68,-30.883 13.4,0 21.4,7.844 23.2,20.59 h 14.22 c -3.11,-20.59 -16.02,-32.851 -37.26,-32.851 -25.82,0 -39.55,17.98 -39.55,43.144 0,25.332 13.07,45.27 39.88,45.27 19.12,0 34.48,-8.989 36.44,-29.086 h -14.38" /><path
         id="path124"
         style="fill:#211d1d;fill-opacity:1;fill-rule:nonzero;stroke:none"
         d="m 1836.24,250.859 c -0.66,13.239 -10.62,23.864 -24.35,23.864 -14.54,0 -23.2,-10.953 -24.19,-23.864 z m 13.4,-23.531 c -3.76,-18.633 -17.16,-28.765 -36.12,-28.765 -26.96,0 -39.71,18.632 -40.52,44.453 0,25.332 16.67,43.961 39.71,43.961 29.91,0 39.06,-27.946 38.24,-48.375 h -63.25 c -0.48,-14.707 7.85,-27.778 26.32,-27.778 11.43,0 19.44,5.555 21.89,16.504 h 13.73" /><path
         id="path126"
         style="fill:#211d1d;fill-opacity:1;fill-rule:nonzero;stroke:none"
         d="m 1873.81,227.164 c 0.5,-12.418 11.28,-16.34 22.72,-16.34 8.66,0 20.43,1.957 20.43,12.582 0,10.789 -13.73,12.586 -27.62,15.692 -13.73,3.105 -27.62,7.679 -27.62,23.855 0,16.996 16.83,24.024 31.54,24.024 18.63,0 33.5,-5.883 34.65,-26.473 h -13.89 c -0.98,10.785 -10.46,14.219 -19.62,14.219 -8.33,0 -17.97,-2.293 -17.97,-10.789 0,-9.969 14.71,-11.602 27.62,-14.707 13.89,-3.106 27.61,-7.68 27.61,-24.024 0,-20.101 -18.79,-26.64 -35.95,-26.64 -18.95,0 -34.97,7.683 -35.78,28.601 h 13.88" /><path
         id="path128"
         style="fill:#211d1d;fill-opacity:1;fill-rule:nonzero;stroke:none"
         d="m 2044.74,244.16 c -5.39,-3.922 -15.85,-4.086 -25.17,-5.719 -9.15,-1.636 -16.99,-4.902 -16.99,-15.199 0,-9.148 7.84,-12.418 16.34,-12.418 18.3,0 25.82,11.438 25.82,19.117 z m 22.55,-43.305 c -2.45,-1.468 -5.55,-2.292 -9.97,-2.292 -7.19,0 -11.76,3.925 -11.76,13.078 -7.69,-8.989 -17.98,-13.078 -29.75,-13.078 -15.36,0 -27.94,6.867 -27.94,23.699 0,19.121 14.22,23.207 28.6,25.984 15.36,2.942 28.43,1.957 28.43,12.418 0,12.094 -9.96,14.059 -18.79,14.059 -11.77,0 -20.43,-3.602 -21.08,-16.016 h -13.89 c 0.82,20.918 16.99,28.27 35.79,28.27 15.19,0 31.7,-3.434 31.7,-23.207 v -43.469 c 0,-6.535 0,-9.477 4.41,-9.477 1.15,0 2.46,0.16 4.25,0.817 v -10.786" /><path
         id="path130"
         style="fill:#211d1d;fill-opacity:1;fill-rule:nonzero;stroke:none"
         d="m 2080.19,285.016 h 13.08 v -13.399 h 0.32 c 5.88,10.457 15.36,15.36 27.45,15.36 22.23,0 29.1,-12.75 29.1,-30.887 v -55.563 h -13.9 v 57.196 c 0,10.3 -6.53,17 -17.15,17 -16.84,0 -25.01,-11.282 -25.01,-26.477 v -47.719 h -13.89 v 84.489" /><path
         id="path132"
         style="fill:#211d1d;fill-opacity:1;fill-rule:nonzero;stroke:none"
         d="m 2207.32,210.824 c 18.63,0 25.82,16.012 25.82,31.867 0,16.668 -7.51,32.032 -26.63,32.032 -18.96,0 -25.33,-16.184 -25.33,-32.688 0,-15.847 8.17,-31.211 26.14,-31.211 z m 39.23,-10.297 h -13.9 v 11.442 h -0.32 c -4.58,-9.317 -15.36,-13.406 -26.97,-13.406 -25.98,0 -38.89,20.593 -38.89,44.453 0,23.859 12.74,43.961 38.56,43.961 8.66,0 21.09,-3.266 27.3,-13.239 h 0.32 v 43.473 h 13.9 V 200.527" /><path
         id="path134"
         style="fill:#211d1d;fill-opacity:1;fill-rule:nonzero;stroke:none"
         d="m 842.27,93.1445 h 30.394 c 17.484,-0.1679 25.492,7.5195 25.492,21.4105 0,13.89 -8.008,21.406 -25.492,21.406 H 842.27 Z m -15.524,55.8945 h 51.149 c 23.207,0 35.789,-12.91 35.789,-34.484 0,-21.5784 -12.582,-34.6448 -35.789,-34.4886 H 842.27 V 32.3516 H 826.746 V 149.039" /><path
         id="path136"
         style="fill:#211d1d;fill-opacity:1;fill-rule:nonzero;stroke:none"
         d="m 929.852,116.84 h 13.07 V 99.0313 h 0.328 c 6.699,13.5627 16.016,20.2617 31.051,19.7737 v -14.707 c -22.387,0 -30.563,-12.7503 -30.563,-34.1566 V 32.3516 H 929.852 V 116.84" /><path
         id="path138"
         style="fill:#211d1d;fill-opacity:1;fill-rule:nonzero;stroke:none"
         d="m 1018.26,42.6445 c 14.54,0 26.31,11.4493 26.31,31.8672 0,20.5938 -11.77,32.0353 -26.31,32.0353 -14.55,0 -26.315,-11.4415 -26.315,-32.0353 0,-20.4179 11.765,-31.8672 26.315,-31.8672 z m 0,76.1605 c 26.8,0 41.02,-19.4495 41.02,-44.2933 0,-24.6679 -14.22,-44.1211 -41.02,-44.1211 -26.799,0 -41.022,19.4532 -41.022,44.1211 0,24.8438 14.223,44.2933 41.022,44.2933" /><path
         id="path140"
         style="fill:#211d1d;fill-opacity:1;fill-rule:nonzero;stroke:none"
         d="m 1132.97,89.7188 c -2.13,10.6132 -9.48,16.8282 -20.92,16.8282 -20.1,0 -26.31,-15.8556 -26.31,-33.0118 0,-15.5274 7.03,-30.8907 24.68,-30.8907 13.4,0 21.4,7.8516 23.2,20.5977 h 14.22 c -3.11,-20.5977 -16.02,-32.8516 -37.26,-32.8516 -25.82,0 -39.55,17.9766 -39.55,43.1446 0,25.332 13.07,45.2698 39.88,45.2698 19.12,0 34.48,-8.992 36.44,-29.0862 h -14.38" /><path
         id="path142"
         style="fill:#211d1d;fill-opacity:1;fill-rule:nonzero;stroke:none"
         d="m 1233.3,32.3516 h -13.08 v 13.4023 h -0.32 c -5.89,-10.4609 -15.37,-15.3633 -27.46,-15.3633 -22.22,0 -29.09,12.7461 -29.09,30.8867 V 116.84 h 13.89 V 59.6484 c 0,-10.3046 6.54,-17.0039 17.16,-17.0039 16.83,0 25.01,11.2813 25.01,26.4766 V 116.84 h 13.89 V 32.3516" /><path
         id="path144"
         style="fill:#211d1d;fill-opacity:1;fill-rule:nonzero;stroke:none"
         d="m 1253.72,116.84 h 13.07 V 99.0313 h 0.33 c 6.7,13.5627 16.01,20.2617 31.05,19.7737 v -14.707 c -22.39,0 -30.56,-12.7503 -30.56,-34.1566 V 32.3516 h -13.89 V 116.84" /><path
         id="path146"
         style="fill:#211d1d;fill-opacity:1;fill-rule:nonzero;stroke:none"
         d="m 1364.35,82.6836 c -0.66,13.2422 -10.62,23.8634 -24.35,23.8634 -14.54,0 -23.2,-10.9532 -24.19,-23.8634 z m 13.4,-23.5352 c -3.76,-18.6211 -17.16,-28.7578 -36.12,-28.7578 -26.96,0 -39.71,18.6328 -40.52,44.4532 0,25.3322 16.67,43.9612 39.71,43.9612 29.91,0 39.06,-27.9456 38.24,-48.3753 h -63.25 c -0.48,-14.707 7.85,-27.7852 26.32,-27.7852 11.43,0 19.44,5.5586 21.89,16.5039 h 13.73" /><path
         id="path148"
         style="fill:#211d1d;fill-opacity:1;fill-rule:nonzero;stroke:none"
         d="m 1393.43,116.84 h 13.07 v -12.414 h 0.32 c 6.22,9.476 15.69,14.379 27.3,14.379 10.29,0 19.77,-4.086 23.2,-14.379 5.73,8.98 15.69,14.379 26.48,14.379 16.83,0 28.11,-7.028 28.11,-24.5198 V 32.3516 h -13.89 v 55.4023 c 0,10.4609 -2.78,18.7931 -16.35,18.7931 -13.4,0 -22.06,-8.5001 -22.06,-21.5782 V 32.3516 h -13.89 v 55.4023 c 0,10.9453 -3.43,18.7931 -15.85,18.7931 -16.51,0 -22.55,-15.1993 -22.55,-21.5782 V 32.3516 h -13.89 V 116.84" /><path
         id="path150"
         style="fill:#211d1d;fill-opacity:1;fill-rule:nonzero;stroke:none"
         d="m 1591.48,82.6836 c -0.66,13.2422 -10.62,23.8634 -24.35,23.8634 -14.54,0 -23.21,-10.9532 -24.19,-23.8634 z m 13.4,-23.5352 c -3.76,-18.6211 -17.16,-28.7578 -36.12,-28.7578 -26.96,0 -39.71,18.6328 -40.52,44.4532 0,25.3322 16.67,43.9612 39.71,43.9612 29.91,0 39.06,-27.9456 38.24,-48.3753 h -63.25 c -0.49,-14.707 7.85,-27.7852 26.32,-27.7852 11.43,0 19.44,5.5586 21.89,16.5039 h 13.73" /><path
         id="path152"
         style="fill:#211d1d;fill-opacity:1;fill-rule:nonzero;stroke:none"
         d="m 1620.56,116.84 h 13.07 v -13.399 h 0.32 c 5.89,10.461 15.37,15.364 27.46,15.364 22.23,0 29.09,-12.75 29.09,-30.8831 V 32.3516 h -13.89 v 57.1992 c 0,10.293 -6.54,16.9962 -17.16,16.9962 -16.83,0 -25,-11.2736 -25,-26.4806 V 32.3516 h -13.89 V 116.84" /><path
         id="path154"
         style="fill:#211d1d;fill-opacity:1;fill-rule:nonzero;stroke:none"
         d="m 1730.69,116.84 h 16.84 v -12.254 h -16.84 V 52.1289 c 0,-6.375 1.8,-7.5195 10.46,-7.5195 h 6.38 V 32.3516 h -10.63 c -14.38,0 -20.1,2.9414 -20.1,18.4687 v 53.7657 h -14.38 v 12.254 h 14.38 v 25.332 h 13.89 V 116.84" /><path
         id="path156"
         style="fill:#211d1d;fill-opacity:1;fill-rule:nonzero;stroke:none"
         d="m 1892.63,113.902 c -3.27,16.504 -16.5,24.836 -32.69,24.836 -27.78,0 -39.54,-22.875 -39.54,-47.2263 0,-26.6406 11.76,-48.8672 39.71,-48.8672 20.43,0 32.19,14.3868 33.66,33.6719 h 15.53 c -2.94,-29.0898 -21.08,-46.7383 -50.5,-46.7383 -36.28,0 -53.93,26.8008 -53.93,60.793 0,33.8239 19.28,61.4449 55.24,61.4449 24.35,0 44.45,-13.078 48.04,-37.914 h -15.52" /><path
         id="path158"
         style="fill:#211d1d;fill-opacity:1;fill-rule:nonzero;stroke:none"
         d="m 1978.57,75.9844 c -5.39,-3.9258 -15.85,-4.0821 -25.16,-5.7227 -9.15,-1.6289 -17,-4.9023 -17,-15.1953 0,-9.1484 7.85,-12.4219 16.34,-12.4219 18.3,0 25.82,11.4493 25.82,19.1211 z m 22.56,-43.3086 c -2.45,-1.4649 -5.56,-2.2852 -9.97,-2.2852 -7.2,0 -11.77,3.9258 -11.77,13.0782 -7.68,-8.9883 -17.98,-13.0782 -29.74,-13.0782 -15.36,0 -27.95,6.8672 -27.95,23.7032 0,19.121 14.22,23.2031 28.6,25.9726 15.36,2.9492 28.43,1.9649 28.43,12.4219 0,12.0977 -9.96,14.0587 -18.79,14.0587 -11.76,0 -20.42,-3.598 -21.08,-16.0197 h -13.89 c 0.82,20.9217 17,28.2777 35.79,28.2777 15.2,0 31.7,-3.434 31.7,-23.2112 V 52.1289 c 0,-6.543 0,-9.4844 4.42,-9.4844 1.14,0 2.45,0.168 4.25,0.8243 v -10.793" /><path
         id="path160"
         style="fill:#211d1d;fill-opacity:1;fill-rule:nonzero;stroke:none"
         d="m 2014.02,116.84 h 13.07 v -13.399 h 0.33 c 5.88,10.461 15.37,15.364 27.46,15.364 22.22,0 29.09,-12.75 29.09,-30.8831 V 32.3516 h -13.89 v 57.1992 c 0,10.293 -6.54,16.9962 -17.16,16.9962 -16.84,0 -25.01,-11.2736 -25.01,-26.4806 V 32.3516 h -13.89 V 116.84" /><path
         id="path162"
         style="fill:#211d1d;fill-opacity:1;fill-rule:nonzero;stroke:none"
         d="m 2157.17,75.9844 c -5.39,-3.9258 -15.85,-4.0821 -25.16,-5.7227 -9.15,-1.6289 -17,-4.9023 -17,-15.1953 0,-9.1484 7.85,-12.4219 16.34,-12.4219 18.3,0 25.82,11.4493 25.82,19.1211 z m 22.56,-43.3086 c -2.46,-1.4649 -5.56,-2.2852 -9.98,-2.2852 -7.19,0 -11.76,3.9258 -11.76,13.0782 -7.68,-8.9883 -17.98,-13.0782 -29.74,-13.0782 -15.37,0 -27.95,6.8672 -27.95,23.7032 0,19.121 14.22,23.2031 28.6,25.9726 15.36,2.9492 28.43,1.9649 28.43,12.4219 0,12.0977 -9.96,14.0587 -18.79,14.0587 -11.76,0 -20.43,-3.598 -21.08,-16.0197 h -13.89 c 0.82,20.9217 17,28.2777 35.79,28.2777 15.19,0 31.7,-3.434 31.7,-23.2112 V 52.1289 c 0,-6.543 0,-9.4844 4.41,-9.4844 1.15,0 2.46,0.168 4.26,0.8243 v -10.793" /><path
         id="path164"
         style="fill:#211d1d;fill-opacity:1;fill-rule:nonzero;stroke:none"
         d="m 2228.9,42.6445 c 18.63,0 25.82,16.0157 25.82,31.8672 0,16.668 -7.51,32.0353 -26.64,32.0353 -18.96,0 -25.33,-16.1759 -25.33,-32.6798 0,-15.8594 8.17,-31.2227 26.15,-31.2227 z m 39.22,-10.2929 h -13.89 v 11.4375 h -0.33 c -4.57,-9.3086 -15.36,-13.3985 -26.96,-13.3985 -25.98,0 -38.89,20.5938 -38.89,44.4532 0,23.8554 12.74,43.9612 38.56,43.9612 8.66,0 21.08,-3.27 27.29,-13.239 h 0.33 v 43.473 h 13.89 V 32.3516" /><path
         id="path166"
         style="fill:#211d1d;fill-opacity:1;fill-rule:nonzero;stroke:none"
         d="m 2341.81,75.9844 c -5.39,-3.9258 -15.85,-4.0821 -25.17,-5.7227 -9.15,-1.6289 -16.99,-4.9023 -16.99,-15.1953 0,-9.1484 7.84,-12.4219 16.34,-12.4219 18.3,0 25.82,11.4493 25.82,19.1211 z m 22.55,-43.3086 c -2.45,-1.4649 -5.55,-2.2852 -9.97,-2.2852 -7.19,0 -11.76,3.9258 -11.76,13.0782 -7.69,-8.9883 -17.98,-13.0782 -29.75,-13.0782 -15.36,0 -27.94,6.8672 -27.94,23.7032 0,19.121 14.22,23.2031 28.6,25.9726 15.36,2.9492 28.43,1.9649 28.43,12.4219 0,12.0977 -9.96,14.0587 -18.79,14.0587 -11.77,0 -20.43,-3.598 -21.08,-16.0197 h -13.89 c 0.82,20.9217 16.99,28.2777 35.79,28.2777 15.19,0 31.7,-3.434 31.7,-23.2112 V 52.1289 c 0,-6.543 0,-9.4844 4.41,-9.4844 1.15,0 2.46,0.168 4.25,0.8243 v -10.793" /></g></g></svg>