<svg id="Layer_1" data-name="Layer 1" xmlns="http://www.w3.org/2000/svg" xmlns:xlink="http://www.w3.org/1999/xlink" viewBox="0 0 237.2 204.21"><defs><style>.cls-1{fill:none;}.cls-2{clip-path:url(#clip-path);}.cls-3{fill:#f6e6e7;}.cls-4{fill:#26282d;}.cls-5{fill:#f15f5d;}.cls-6{fill:#00587e;}.cls-7{fill:#4b5059;}.cls-8{fill:#252c64;}.cls-9{fill:#f37575;}.cls-10{fill:#f8963c;}.cls-11{fill:#3f2243;}.cls-12{fill:#222459;}.cls-13{fill:#2a417f;}.cls-14{fill:#face69;}.cls-15{fill:#6e256c;}.cls-16{fill:#6e71a8;}.cls-17{fill:#a4a7d3;}.cls-18{fill:#542f5a;}.cls-19{fill:#94729c;}.cls-20{fill:#fff;}.cls-21{fill:#2b337c;}.cls-22{fill:#f7b319;}.cls-23{fill:#212557;}.cls-24{fill:#2b3278;}.cls-25{opacity:0.69;}.cls-26{clip-path:url(#clip-path-2);}.cls-27{fill:#7578b9;}.cls-28{clip-path:url(#clip-path-3);}.cls-29{fill:#76597b;}.cls-30{fill:#012b32;}.cls-31{fill:#86b2c5;}.cls-32{fill:#014f70;}.cls-33{fill:#95d2b8;}.cls-34{fill:#f47521;}.cls-35{fill:#35424a;}.cls-36{fill:#465861;}.cls-37{fill:#81906b;}.cls-38{fill:#402420;}.cls-39{fill:#618ca1;}.cls-40{fill:#b2d0d7;}.cls-41{fill:#1e3340;}.cls-42{fill:#35514c;}.cls-43{fill:#15242b;}.cls-44{fill:#111522;}.cls-45{fill:#bb6728;}.cls-46{fill:#fbb447;}.cls-47{fill:#fff7d0;}.cls-48{fill:#835c44;}.cls-49{fill:#af7959;}.cls-50{fill:#68111f;}.cls-51{fill:#824f48;}.cls-52{fill:#7fa3b4;}.cls-53{fill:#203640;}.cls-54{fill:#42848b;}.cls-55{fill:#321f48;}.cls-56{fill:#312f78;}.cls-57{fill:#99a588;}.cls-58{fill:#2b0f27;}.cls-59{fill:#2f499f;}.cls-60{fill:#013135;}</style><clipPath id="clip-path" transform="translate(-4.75 -4.33)"><rect class="cls-1" x="-182" y="-252.67" width="612" height="792"/></clipPath><clipPath id="clip-path-2" transform="translate(-4.75 -4.33)"><rect id="SVGID" class="cls-1" x="74.69" y="24.04" width="2.24" height="2.76"/></clipPath><clipPath id="clip-path-3" transform="translate(-4.75 -4.33)"><rect id="SVGID-2" data-name="SVGID" class="cls-1" x="78.02" y="22.97" width="2.24" height="2.76"/></clipPath></defs><title>header_people</title><path class="cls-3" d="M197.25,100.58A96.25,96.25,0,1,1,101,4.33a96.25,96.25,0,0,1,96.25,96.25" transform="translate(-4.75 -4.33)"/><path class="cls-4" d="M90.36,7.74a20.14,20.14,0,0,0,.32,3.81c.09.41.42,1,.6.71.34-.55-.7-3.76-.92-4.52.7,1.3,2.26,5.08.86,5-1.42.11-1.13-3.6-.86-5" transform="translate(-4.75 -4.33)"/><path class="cls-5" d="M97.86,13.42s-.54-2.54-.13-3.17A6,6,0,0,0,98,7.34c-.1-.47-.42-1.15-.67-1.1S96.19,6.07,96,6.11l-.94.19c-.32.07-.65,1.19-.88,1.54s1.39,4.7,1.39,4.7Z" transform="translate(-4.75 -4.33)"/><polygon class="cls-6" points="151.5 5.72 85.77 3.21 85.79 2.61 151.52 5.13 152.51 5.51 151.5 5.72"/><polygon class="cls-7" points="85.53 2.05 85.48 3.72 91.38 3.57 91.33 2.78 85.53 2.05"/><polygon class="cls-8" points="150.46 5.84 145.56 5.62 145.58 4.78 150.48 4.89 150.46 5.84"/><path class="cls-9" d="M96,5.89v.22s-.22,1.49.14,1.72.56-1.65.56-1.65-.32,1.71,0,1.86.71-1.59.71-1.59A4.14,4.14,0,0,0,97.16,8c.11.52.85-.65.85-.65a2,2,0,0,0-.22-1c-.28-.52-.52-.31-.69-.42a2,2,0,0,0-1.13,0" transform="translate(-4.75 -4.33)"/><path class="cls-9" d="M96.31,7.07c.4.26-1.29,1.11-1.44,1.61S95,9.89,94.68,10a5,5,0,0,1-.57-2c.15-.23,1.8-1.16,2.2-.89" transform="translate(-4.75 -4.33)"/><path class="cls-5" d="M19.83,20.57s0-2.59-.51-3.13a5.82,5.82,0,0,1-.86-2.79c0-.48.16-1.21.42-1.21S20,13,20.16,13s-1.25-3.71-.62-3.89S20.79,13,21.12,13s.4-4.43.92-4.43,0,5.46.25,5.76-.4,4.89-.4,4.89Z" transform="translate(-4.75 -4.33)"/><path class="cls-9" d="M20.15,12.82l.05.21s.52,1.41.21,1.72-.88-1.51-.88-1.51.66,1.61.37,1.82-1-1.41-1-1.41a4.27,4.27,0,0,1,.54,1.46c0,.53-1-.46-1-.46a1.8,1.8,0,0,1,0-1.06c.17-.57.44-.41.58-.56a2,2,0,0,1,1.11-.21" transform="translate(-4.75 -4.33)"/><path class="cls-9" d="M22,14.43s-1.56-.73-1.9-.39,1.37,1.15,1.62,1.6.22.67.46.9.4-1.95.22-2.14-.4,0-.4,0" transform="translate(-4.75 -4.33)"/><path class="cls-10" d="M70.71,36.41a30.77,30.77,0,0,1-11.83,1.51c-.83-.09-3.3-.33-4.16-.44-6.9-.84-14.24-1.19-14.24-1.09L41,39.14A104.23,104.23,0,0,0,57,44.53C62.51,45.7,68.33,45,70.6,45c5.18,0,3.32-8.61.11-8.61" transform="translate(-4.75 -4.33)"/><path class="cls-11" d="M69.48,36.93s-5.92,8.18-8.19,8.18-6.57-7.63-6.57-7.63l-.48,11.79s2.42,4.27,7.27,4.27S73.64,36.16,73.64,36.16Z" transform="translate(-4.75 -4.33)"/><polygon class="cls-12" points="81.93 71.84 81.93 131.78 78.03 131.78 72.97 74.78 71.39 67.87 81.93 71.84"/><path class="cls-12" d="M71.4,135l.38,3.88-7.86-.5s3.28-1.52,4.88-1.52l.34-1.86Z" transform="translate(-4.75 -4.33)"/><polygon class="cls-12" points="78.15 130.67 78.15 134.19 86.47 134.19 80.82 131.87 80.29 130.67 78.15 130.67"/><polygon class="cls-13" points="65.32 71.14 64.36 74.58 62.54 131.18 67.16 131.18 75.97 71.14 65.32 71.14"/><path class="cls-14" d="M94,12s-.3,8.37-1.35,10.56c-1.91,4-8.21,11.53-8.21,11.53l3.93,9.64S95.69,32.44,98,25c1-3.33.55-12.54.55-12.54-1.18-1.1-3.37-1.5-4.55-.4" transform="translate(-4.75 -4.33)"/><path class="cls-15" d="M57.23,137.39l-.53-.23,0-.67-2.08.14-.38,1.83.08,1H62.1s-3.42-1.6-4.87-2.06" transform="translate(-4.75 -4.33)"/><path class="cls-16" d="M56.09,74.54l-8.9,9.28.78,2s5,20.2,5,22.25.36,28.64.36,28.64l3.9-.27.92-28.59Z" transform="translate(-4.75 -4.33)"/><path class="cls-17" d="M39.53,72.1c.12,1.36-3.3,31.2-3.3,31.2l-4.39,32.52,2.56.05c-.6-2,8.05-27.66,8.05-27.66S49.43,87,49.17,87l4.1-8.68a9.9,9.9,0,0,0,3.56-7.24c-5.11-.53-17.3,1-17.3,1" transform="translate(-4.75 -4.33)"/><path class="cls-15" d="M34.4,135.87l-2.56-.05v5.53h4.62s-1.45-3.5-2.06-5.48" transform="translate(-4.75 -4.33)"/><path class="cls-18" d="M37.84,80.3c-.59-4.17-.32-25.08-.57-32.73,0-.24,1.66-9.89,1.66-9.89.4,0,5.06-.65,8.71-.65a61.55,61.55,0,0,1,7.08.45,38.64,38.64,0,0,1,1.6,10.28c0,3,1.27,21.51.84,30-5,.66-14.34,2.43-19.32,2.54" transform="translate(-4.75 -4.33)"/><path class="cls-19" d="M54.72,37.48a35.81,35.81,0,0,1,1.76,10c.2,6.14,1.33,21.08.68,30.32.12-9.67-1-25.77-1-30.32a40.25,40.25,0,0,0-1.42-10" transform="translate(-4.75 -4.33)"/><path class="cls-20" d="M51.1,30.14a4,4,0,0,1-2.82.46s.9,1,1.58,1,1.24-1.5,1.24-1.5" transform="translate(-4.75 -4.33)"/><path class="cls-5" d="M39.38,37.4s-.61,3.22-.07,3.16.93-2.25.93-2.25-.16,2.94.34,2.88.69-2.86.69-2.86.16,2.39.57,2.71.54-2.87.54-2.87.14,2,.4,1.95.73-1.88.83-2.78-.84-1.17-1.74-1.07-.62,0-1.39.12-1.1,1-1.1,1" transform="translate(-4.75 -4.33)"/><path class="cls-21" d="M42.88,25.35A2.51,2.51,0,0,0,40.66,25l.12.31a2.36,2.36,0,0,1,2.1,0" transform="translate(-4.75 -4.33)"/><path class="cls-21" d="M40.41,26.92a2.21,2.21,0,0,1,.88-1.19,1.86,1.86,0,0,1,1.1-.27l.39.05a2.74,2.74,0,0,0-.78-.07,2.1,2.1,0,0,0-1.75,1.43Z" transform="translate(-4.75 -4.33)"/><path class="cls-9" d="M48.57,33.76s-.41,4.36.87,6.5a1.06,1.06,0,0,1-.85,1.61,6.16,6.16,0,0,1-1.9-.28,3.56,3.56,0,0,1-2.32-1.92c-.91-3,.82-8.35.82-8.35Z" transform="translate(-4.75 -4.33)"/><path class="cls-5" d="M44.73,33c.24-1,.46-1.68.46-1.68l3.38,2.45a19.55,19.55,0,0,0,0,2.73c-1.11-.24-2.55-1.06-3.81-3.5" transform="translate(-4.75 -4.33)"/><path class="cls-9" d="M49.59,23.37s.73-.28,1.34.65,1.19,4.08.66,7-.94,4-2.21,4-3.58-.53-5.29-4.44-1.14-8.4,5.5-7.18" transform="translate(-4.75 -4.33)"/><path class="cls-21" d="M49.79,25.75c.29,0,1.56.19,2-2.42s-2.34-5.81-4.26-4.95.51,2.34.51,2.34-1.39-.77-1.79.13.2,1.3,0,1.5-1.52-1.62-3-.16-.48,2.36-.84,3.18-2.05,2-.37,4.73a4.68,4.68,0,0,0,2.89,2.07A8.25,8.25,0,0,1,44.66,30c0-1.23,1-.25,1-.25s-.44-.09-.44-1.3a12.65,12.65,0,0,0-.53-2.69c0-.33-.12-1.19,1.26-.61a13.23,13.23,0,0,0,3.87.58" transform="translate(-4.75 -4.33)"/><path class="cls-8" d="M49.23,31a.09.09,0,0,1,0-.17l1.06-.1L50,28c.12.78.35,2.24.45,2.9L49.23,31" transform="translate(-4.75 -4.33)"/><path class="cls-8" d="M46.67,28a1.51,1.51,0,0,1,2.11-.44.08.08,0,1,1-.09.13,1.35,1.35,0,0,0-1.89.4.08.08,0,0,1-.11,0,.08.08,0,0,1,0-.12" transform="translate(-4.75 -4.33)"/><path class="cls-8" d="M51.48,26.8a.09.09,0,0,1,.08.08.08.08,0,0,1-.08.08.89.89,0,0,0-.85.73.08.08,0,1,1-.16,0,1.08,1.08,0,0,1,1-.86" transform="translate(-4.75 -4.33)"/><path class="cls-20" d="M48.44,32.1h0a2.47,2.47,0,0,0,1.9.28h0a.1.1,0,0,1,0,.2c-1.56.36-2.45-.23-2.18-.49a.17.17,0,0,1,.23,0" transform="translate(-4.75 -4.33)"/><path class="cls-9" d="M46,30.44s.08-1.83-1.35-2.2-1.24,1.24-.45,2a1.49,1.49,0,0,0,1.8.16" transform="translate(-4.75 -4.33)"/><path class="cls-5" d="M44.63,28.78c.6-.16.86.67.88.76.09.27.05.52-.46.62s-1-1.21-.42-1.38" transform="translate(-4.75 -4.33)"/><path class="cls-10" d="M70.71,36.41a36.32,36.32,0,0,1-10.78,2.44l1.17,6.24c4.61.54,7.6-.07,9.5-.07,5.18,0,3.32-8.61.11-8.61" transform="translate(-4.75 -4.33)"/><path class="cls-22" d="M75.68,35.79s-4.59.06-6.09,1.56-2.3,42.54-2.3,42.54,21.09-.78,21.12-1.78c.23-5.85.25-28.44,0-34.37A20.19,20.19,0,0,0,84.84,33.5c-2.59,0-9.16,2.29-9.16,2.29" transform="translate(-4.75 -4.33)"/><path class="cls-5" d="M69.48,36.93s0,3.28.47,3.13.54-2.38.54-2.38.34,2.93.82,2.79.19-2.94.19-2.94.57,2.33,1,2.58,0-2.93,0-2.93S73,39.11,73.3,39s.4-2,.34-2.87-1-.9-1.87-.64-.63,0-1.37.23-.92,1.18-.92,1.18" transform="translate(-4.75 -4.33)"/><path class="cls-5" d="M78.75,24.17S79.26,22.7,80,22.7s1,2.14.22,2.58-1.73,0-1.49-1.11" transform="translate(-4.75 -4.33)"/><path class="cls-9" d="M73.12,27.49s1.53,7.4,2.47,8.66,3.91,1.32,4.86.34l-1-6.35Z" transform="translate(-4.75 -4.33)"/><path class="cls-5" d="M79.71,32l-.31-1.87-6.28-2.65s.31,1.49.73,3.25a10,10,0,0,0,2.58,1.73A2.84,2.84,0,0,0,79.71,32" transform="translate(-4.75 -4.33)"/><path class="cls-9" d="M76.51,18.71a3,3,0,0,1,2.43,1.19c.71,1.21,2.23,7.5,1.88,9.11s-2,2.38-4,1.59-4.85-3-5.52-5.52,1.82-7.1,5.19-6.37" transform="translate(-4.75 -4.33)"/><path class="cls-23" d="M74.15,18c-1.06.56-4-.32-4.57,2.47s1.09,2.78.87,3.79,0,1.37.88,2.87a9.1,9.1,0,0,0,1.75,2.29,1.85,1.85,0,0,0,.54.39l-.48-2.2s-1.07-.82-.94-1.44,1.21-.1,1.47-.51c.41-.67-1.53-3.95,1-5.3,2.19-1.17,4.12-.59,4.86,1.06.67-.29-1-5.71-5.36-3.42" transform="translate(-4.75 -4.33)"/><path class="cls-9" d="M73.56,26.11s-.91-1.18-1.59-.83-.29,2.53.59,2.58a1.1,1.1,0,0,0,1-1.75" transform="translate(-4.75 -4.33)"/><path class="cls-5" d="M73.25,26.07s-1.25-.67-1.4,0,.49,1.39,1.19.94.21-1,.21-1" transform="translate(-4.75 -4.33)"/><path class="cls-20" d="M76.6,28.38a5.21,5.21,0,0,0,2.67-.53,5.33,5.33,0,0,0,.77-.5,2.82,2.82,0,0,1-.7.63,3.48,3.48,0,0,1-2.74.4" transform="translate(-4.75 -4.33)"/><path class="cls-8" d="M74.13,25.32a2.33,2.33,0,0,1,.73-1.51,1.52,1.52,0,0,1,1.54-.17.1.1,0,1,1-.08.18A1.31,1.31,0,0,0,75,24a2.22,2.22,0,0,0-.66,1.38.11.11,0,0,1-.11.09.09.09,0,0,1-.08-.1" transform="translate(-4.75 -4.33)"/><path class="cls-8" d="M77.85,23.13c.29-.73,1.7-.52,1.92-.29s-.06.23-.14.13-.17-.15-.81-.16a.81.81,0,0,0-.8.4.09.09,0,1,1-.17-.08" transform="translate(-4.75 -4.33)"/><path class="cls-24" d="M78.57,26.18a4.15,4.15,0,0,0-.63-.42,3.39,3.39,0,0,0-.29.62,3.28,3.28,0,0,0,.33-.47,2.62,2.62,0,0,0,.59.27" transform="translate(-4.75 -4.33)"/><path class="cls-21" d="M73.5,21.6A9,9,0,0,0,74,18.9c-.13-.84-1-1.29-1.52-1a.67.67,0,0,0-.36.72,1.79,1.79,0,0,1,.11-1.4c.39-.57,1.22-.41,1.64-.32a.79.79,0,0,1,.54.31s.1-.73-.4-1a1.15,1.15,0,0,0-1,.07,1.5,1.5,0,0,1,1.46-.51,1.36,1.36,0,0,1,1.12.92c.14.22,0,.72,0,.72a1.68,1.68,0,0,0,.68-.84c.1-.46-.71-1.19-.71-1.19s2.41-.4,1.92,1.84a.82.82,0,0,0,.74-.39,1,1,0,0,0,0-1s3.87,3.84,1.38,5.45A2.43,2.43,0,0,0,77,20,5,5,0,0,0,73.5,21.6" transform="translate(-4.75 -4.33)"/><path class="cls-8" d="M74.58,25a1.4,1.4,0,1,0,1.69-1.16A1.46,1.46,0,0,0,74.58,25" transform="translate(-4.75 -4.33)"/><g class="cls-25"><g class="cls-26"><path class="cls-27" d="M75.28,24l1.65,2.33a1.49,1.49,0,0,1-.28.23L75,24.26a1.42,1.42,0,0,1,.28-.22" transform="translate(-4.75 -4.33)"/><path class="cls-27" d="M74.78,24.53l1.57,2.22-.18.05-1.48-2.09c0-.07.06-.12.09-.18" transform="translate(-4.75 -4.33)"/></g></g><path class="cls-8" d="M77.91,24A1.4,1.4,0,1,0,79.6,22.8,1.46,1.46,0,0,0,77.91,24" transform="translate(-4.75 -4.33)"/><g class="cls-25"><g class="cls-28"><path class="cls-27" d="M78.61,23l1.65,2.34a1.44,1.44,0,0,1-.27.22l-1.65-2.34a1.13,1.13,0,0,1,.27-.22" transform="translate(-4.75 -4.33)"/><path class="cls-27" d="M78.12,23.46l1.56,2.22-.18.05L78,23.64a1.62,1.62,0,0,1,.1-.18" transform="translate(-4.75 -4.33)"/></g></g><polygon class="cls-8" points="72.42 20.63 72.34 20.4 73.27 20.05 73.35 20.28 72.42 20.63"/><rect class="cls-8" x="73.77" y="24.73" width="0.24" height="1.65" transform="matrix(0.21, -0.98, 0.98, 0.21, 28.46, 88)"/><path class="cls-29" d="M38.93,37.68a37.79,37.79,0,0,1-1.66,9.89S30.2,41.8,25.12,37.78c-4.22-3.34-6.24-18.5-6.24-18.5L23,17.68s2.23,12.41,6.28,15.82c5.25,4.42,9.69,4.18,9.69,4.18" transform="translate(-4.75 -4.33)"/><path class="cls-8" d="M48.57,28.5a.42.42,0,0,1-.42.42.41.41,0,0,1-.41-.42.41.41,0,0,1,.41-.41.41.41,0,0,1,.42.41" transform="translate(-4.75 -4.33)"/><path class="cls-8" d="M51.51,28.35a.41.41,0,0,1-.41.41.41.41,0,0,1-.42-.41.42.42,0,0,1,.42-.42.41.41,0,0,1,.41.42" transform="translate(-4.75 -4.33)"/><path class="cls-30" d="M187.54,49.71l-2-1.39s5.17-8.82,4.64-16.42c-.28-4,6.05-9.92,7.73-9,.11,0,5.63.12,6.12,13.22l1.18,15.35-6,5.48a6.54,6.54,0,0,0-8.36-1.14C186.12,58.75,185,53,185,53s2.53-1.85,2.53-3.26" transform="translate(-4.75 -4.33)"/><path class="cls-9" d="M199.72,189.55c.58.6-4,11.87-4,11.87l6.35,1.81L205.25,190Z" transform="translate(-4.75 -4.33)"/><path class="cls-31" d="M195.1,202.36a2.25,2.25,0,0,1-2.88-.6c1.57-2.38,2.44-4.53,2.82-5a1.6,1.6,0,0,1,2.44-.57c1.44.78,2.67,2.46,2.1,2.81a38,38,0,0,1-4.48,3.4" transform="translate(-4.75 -4.33)"/><path class="cls-32" d="M205.07,207l-6.48.07c-2.67,0-6.92.37-8.26.39s-6.2-2.74-5.9-3.66,4.69-.74,7-1.8,5.26-4.18,6.29-4.12c.86,0,5.25.9,6,1.58s2,6.93,1.36,7.54" transform="translate(-4.75 -4.33)"/><path class="cls-33" d="M185.57,203.23h0c1,.25,2.8,2.08,5.46,2.7,2.07.48,10.5-.5,14.15-1,.12,1,.11,1.84-.11,2l-6.48.07c-2.67,0-6.92.37-8.26.39s-6.2-2.74-5.9-3.66c.09-.26.52-.44,1.14-.58" transform="translate(-4.75 -4.33)"/><path class="cls-33" d="M194,203.33a.13.13,0,0,0,0-.12c-.29-1.54-2.42-1.6-2.51-1.6a.19.19,0,0,0-.17.13.1.1,0,0,0,.1.14s2.05.06,2.31,1.44c0,.07.08.1.16.07a.16.16,0,0,0,.08-.06" transform="translate(-4.75 -4.33)"/><path class="cls-33" d="M195,202.21a.14.14,0,0,0,0-.12c-.15-1-2.35-1.5-2.45-1.52a.19.19,0,0,0-.19.11.11.11,0,0,0,.07.16c.6.14,2.18.64,2.29,1.36a.11.11,0,0,0,.16.07.12.12,0,0,0,.08-.06" transform="translate(-4.75 -4.33)"/><path class="cls-33" d="M195.75,201.42a.14.14,0,0,0,0-.1c0-.92-2.24-1.63-2.49-1.7a.17.17,0,0,0-.19.09.11.11,0,0,0,0,.17c.65.2,2.34.86,2.35,1.51,0,.07.06.11.14.09a.13.13,0,0,0,.1-.06" transform="translate(-4.75 -4.33)"/><path class="cls-9" d="M224.77,185c.83-.09,7.12,10.31,7.12,10.31l5.26-4-8.69-10.46Z" transform="translate(-4.75 -4.33)"/><path class="cls-31" d="M232.25,196.43a2.25,2.25,0,0,1-2.21,1.94c-1-2.68-2.15-4.67-2.34-5.28a1.6,1.6,0,0,1,1-2.29c1.49-.69,3.57-.66,3.51,0a41.09,41.09,0,0,1,0,5.63" transform="translate(-4.75 -4.33)"/><path class="cls-32" d="M242,191.24l-3.83,5.23c-1.58,2.15-3.86,5.76-4.65,6.83s-5.91,3.32-6.46,2.53,2.22-4.2,2.73-6.65-.18-6.72.48-7.51,3.87-3.66,4.88-3.87,6.76,2.55,6.85,3.44" transform="translate(-4.75 -4.33)"/><path class="cls-33" d="M227.22,204.57h0c.81-.67,3.34-1,5.43-2.75,1.62-1.36,5.9-8.7,7.73-11.89.89.52,1.53,1,1.56,1.31l-3.83,5.23c-1.58,2.15-3.86,5.76-4.65,6.83s-5.91,3.32-6.47,2.53c-.16-.23,0-.68.22-1.26" transform="translate(-4.75 -4.33)"/><path class="cls-33" d="M232.34,197.92a.18.18,0,0,0-.07-.1c-1.42-.7-2.74,1-2.8,1a.2.2,0,0,0,0,.22.1.1,0,0,0,.17,0s1.27-1.61,2.53-1a.12.12,0,0,0,.16-.09.17.17,0,0,0,0-.1" transform="translate(-4.75 -4.33)"/><path class="cls-33" d="M232.06,196.43a.18.18,0,0,0-.07-.11c-.88-.47-2.62,1-2.69,1.05a.2.2,0,0,0,0,.22.11.11,0,0,0,.17,0c.47-.4,1.83-1.36,2.46-1a.12.12,0,0,0,.16-.08.17.17,0,0,0,0-.1" transform="translate(-4.75 -4.33)"/><path class="cls-33" d="M231.89,195.34a.15.15,0,0,0-.06-.09c-.74-.54-2.64.81-2.86,1a.19.19,0,0,0,0,.21.12.12,0,0,0,.17.06c.55-.4,2.09-1.36,2.62-1a.11.11,0,0,0,.16-.06.25.25,0,0,0,0-.12" transform="translate(-4.75 -4.33)"/><path class="cls-5" d="M101.06,57.14A45.24,45.24,0,0,1,98,50.82c.09-.56,2.74,3,2.74,3,.61-.62-.94-3.51-1.18-4.46s-1.11-2-.15-2,2.3,6.05,2.69,6.05-.58-5.34-.94-6.55.46-2.38.95-.18,1.47,7.58,1.47,6.51-.26-6.3.31-6.87.81,2.11.81,5.1a10.94,10.94,0,0,0,.25,2.73.87.87,0,0,0,1.1.6.41.41,0,0,0,.31-.41c0-.64.12-2.51,1-2.51s.19,1.93.19,3.42a16.56,16.56,0,0,1-1,4.12,23.75,23.75,0,0,0,1.94,5.73,20.59,20.59,0,0,0-3.46,1.62,94,94,0,0,0-4-9.66" transform="translate(-4.75 -4.33)"/><path class="cls-34" d="M108.39,60.52s7.61,18.27,13.5,22.07,16.17,15.46,23,15.72c0,0-7.09,12.12-9.62,11.28s-22-19.48-25-22.43S102.49,63,102.49,63Z" transform="translate(-4.75 -4.33)"/><path class="cls-35" d="M196.7,194.89c1.51-8.37-3.73-29.14-6.92-38.27-3.32-9.49-5.44-49.68-5.44-49.68l3.77-4.41,15.37-.92s-6.54,20.12-6.54,27,5.19,23.64,8.92,32.93c3.45,8.57,0,27.67-1,33.58a22.21,22.21,0,0,1-8.13-.27" transform="translate(-4.75 -4.33)"/><path class="cls-36" d="M207.36,103.47c.71.71,4.84,5.61,4.84,9s-7.79,34.25-5.92,36.12,19.41,11.31,21.49,18c2,6.33,4.66,16.46,6.66,19.16-1.88,3.13-5.78,3-9,4.11-.51-2.81-.68-2.75-2.55-6.45-4.16-8.2-24.45-22.84-27.32-28.65s-4.43-32.38-5.89-35.91-5.33-12.5-5.33-12.5Z" transform="translate(-4.75 -4.33)"/><path class="cls-5" d="M184.94,80.76s-9.49,10.84-20,14.93a11.55,11.55,0,0,0-3,1.88c0,1.11,2.21-.21,2.21-.21a4.66,4.66,0,0,0-.56,2.91c.35,1.31,2.64.44,3.89.44.57,0,3.49-3.28,7.45-5.21,4.68-2.28,10.2-4.52,10.87-5.19,1.25-1.25-.45-10-.82-9.55" transform="translate(-4.75 -4.33)"/><path class="cls-37" d="M204.24,50.23s-9.55-1-14.53,2.21S181.54,67,181.54,71.82s3.59,30.3,2.21,35.15c0,0,15.78-.69,21.18-.69s6.5-2.08,6.5-2.08-11.21-11.07-11.21-15.91,4-38.06,4-38.06" transform="translate(-4.75 -4.33)"/><path class="cls-38" d="M142.56,169.64H146v-65c0-2.19,2.14-4,4.77-4h30.62a1.42,1.42,0,1,0,0-2.83H150.73c-4.5,0-8.17,3.05-8.17,6.8Z" transform="translate(-4.75 -4.33)"/><path class="cls-38" d="M73.85,180.7v16.59h1.79V182.21H87.51v5.18c-4.59.49-8.18,4.74-8.18,9.9,0,5.5,4.06,10,9.07,10s9.08-4.46,9.08-10c0-5.16-3.59-9.41-8.18-9.9v-5.18h2.46v-2H89.3v-6h2.46v-2H89.3v-6.64h32.48v-2.95h-18v-16.9a10,10,0,0,1,9.69-9.55H129v-2.95H113.52a12.76,12.76,0,0,0-12.37,12.5v16.9H89.3v-9.48H87.51V172.3h-6c-4.22,0-7.65,3.77-7.65,8.4m13.66-.46H75.65a6.13,6.13,0,0,1,5.85-6h6Z" transform="translate(-4.75 -4.33)"/><path class="cls-38" d="M126.6,156a20.76,20.76,0,1,1-20.54,20.76A20.66,20.66,0,0,1,126.6,156" transform="translate(-4.75 -4.33)"/><path class="cls-38" d="M101.59,176.77a25,25,0,1,0,25-25.27,25.15,25.15,0,0,0-25,25.27m2.37,0a22.64,22.64,0,1,1,22.64,22.89A22.77,22.77,0,0,1,104,176.77" transform="translate(-4.75 -4.33)"/><rect class="cls-39" x="138.27" y="104.64" width="10.05" height="39"/><path class="cls-40" d="M93.25,197.29h1.94V180.7a6.41,6.41,0,0,1,6.37-6.43H112.7v-2H101.56a8.37,8.37,0,0,0-8.31,8.4Z" transform="translate(-4.75 -4.33)"/><rect class="cls-41" x="75.37" y="146.15" width="26.42" height="4.54"/><rect class="cls-40" x="89.47" y="175.91" width="18.48" height="1.97"/><rect class="cls-40" x="104.3" y="158.38" width="36.23" height="2.95"/><rect class="cls-42" x="101.14" y="146.08" width="47.18" height="4.61"/><path class="cls-40" d="M151.61,173.12h2.92v-65a4,4,0,0,1,4.09-4h27.52v-2.84H158.62a6.93,6.93,0,0,0-7,6.81Z" transform="translate(-4.75 -4.33)"/><path class="cls-43" d="M98.1,197.29c0,5.5,4.91,10,11,10s11-4.46,11-10-4.9-9.95-11-9.95-11,4.46-11,9.95" transform="translate(-4.75 -4.33)"/><path class="cls-44" d="M102.39,197.29c0,3.35,3,6.06,6.66,6.06s6.67-2.71,6.67-6.06-3-6.06-6.67-6.06-6.66,2.72-6.66,6.06" transform="translate(-4.75 -4.33)"/><path class="cls-40" d="M108.9,202.5h.43a2.34,2.34,0,0,0,2.34-2.34V193h-5.11v7.13a2.34,2.34,0,0,0,2.34,2.34" transform="translate(-4.75 -4.33)"/><path class="cls-45" d="M84.75,192.24l-8.26-.31c-3.4-.12-8.84.08-10.54,0s-7.71-4.3-7.25-5.6,6-.76,9-2.12,8.45-5.88,9.19-5.07,5.74,1.21,6.68,2.23,2.07,10,1.19,10.85" transform="translate(-4.75 -4.33)"/><path class="cls-46" d="M86.73,195.73l-8.26-.31c-3.4-.13-8.84.08-10.55,0s-7.7-4.31-7.25-5.6,6-.76,9-2.13,8.45-5.87,9.19-5.06,5.74,1.2,6.67,2.22,2.08,10,1.2,10.86" transform="translate(-4.75 -4.33)"/><path class="cls-47" d="M85.59,193.44c-13.48-2.64-9.77,1.63-22.89-2.57,3.17,1.43,7.9,2.91,11.35,2.36a30.62,30.62,0,0,1,5.75-.17c1.93.07,3.86.22,5.79.38" transform="translate(-4.75 -4.33)"/><path class="cls-47" d="M76.6,189.46a.51.51,0,0,1-.74,0,27.15,27.15,0,0,0-4-3l1-.63a29.19,29.19,0,0,1,3.72,2.86.53.53,0,0,1,0,.75" transform="translate(-4.75 -4.33)"/><path class="cls-47" d="M77.45,187.32a.51.51,0,0,1-.7-.22,12.54,12.54,0,0,0-1.86-2.6l.9-.58a13.59,13.59,0,0,1,1.89,2.69.53.53,0,0,1-.23.71" transform="translate(-4.75 -4.33)"/><path class="cls-48" d="M80.12,133.44c4.92-6,49.53-1.78,49.53-1.78S92.26,140.8,90.08,142s-13.59,41.42-13.6,41.95c-2.25-.54-4.55-1.26-6.84-1.73,1.83-6.76,5.88-43.2,10.48-48.77" transform="translate(-4.75 -4.33)"/><path class="cls-49" d="M136.53,140.74s-.38,10-3.72,10.16-22.46-2.26-31.88-6.23c0,0,.09,9.18-1.75,13.28S87,188.57,87,188.57L74.91,184.3s5.47-23,7.38-32S89,132.71,94.06,132.53s35.54-2.26,35.54-2.26Z" transform="translate(-4.75 -4.33)"/><path class="cls-50" d="M145.5,93.89s5.41,1.37,4.67,11.94-6.57,42.56-17.36,45.07S115,130.64,115,130.64s6.81-2.24,9.65-12.82c2-7.33,7.23-23.87,8.54-24.67,3.28-2,12.32.74,12.32.74" transform="translate(-4.75 -4.33)"/><path class="cls-40" d="M122.89,165h2.91V145.81c0-4.51,4.5-9.56,10.52-9.56h16.75v-2.94H136.32c-7.16,0-13.43,5.84-13.43,12.5Z" transform="translate(-4.75 -4.33)"/><path class="cls-51" d="M129.48,179.51a23.59,23.59,0,1,0,23.59-23.84,23.71,23.71,0,0,0-23.59,23.84" transform="translate(-4.75 -4.33)"/><path class="cls-52" d="M124.35,179.51a28.72,28.72,0,1,0,28.72-29,28.87,28.87,0,0,0-28.72,29m2.72,0a26,26,0,1,1,26,26.28,26.14,26.14,0,0,1-26-26.28" transform="translate(-4.75 -4.33)"/><path class="cls-53" d="M133.61,179.51a19.46,19.46,0,1,0,19.46-19.66,19.57,19.57,0,0,0-19.46,19.66" transform="translate(-4.75 -4.33)"/><path class="cls-44" d="M148.69,179.51a4.38,4.38,0,1,0,4.38-4.42,4.4,4.4,0,0,0-4.38,4.42" transform="translate(-4.75 -4.33)"/><rect class="cls-41" x="61.55" y="190.83" width="29.7" height="5.15"/><rect class="cls-54" x="74.39" y="190.83" width="16.86" height="5.15"/><rect class="cls-40" x="103.33" y="150.63" width="1.95" height="45.35"/><path class="cls-44" d="M107.9,197.87a1.2,1.2,0,1,0,1.2-1.21,1.21,1.21,0,0,0-1.2,1.21" transform="translate(-4.75 -4.33)"/><path class="cls-5" d="M145.9,79.37c.34,0,1.09-.68,1.33,0s-1.55,4.86-2.62,3.79,1.29-3.79,1.29-3.79" transform="translate(-4.75 -4.33)"/><path class="cls-9" d="M134.19,81.24l9.16,2.41s-.09,6.66-.09,9.66c0,0-5.86,4.42-10.26,0Z" transform="translate(-4.75 -4.33)"/><path class="cls-5" d="M134.05,84.46c0-.25-.07-.51-.1-.78l.24-2.44,9.16,2.41s0,1.83,0,4c-1.34,2-3.36,3.15-4,3.15s-4.59-2.18-5.21-6.38" transform="translate(-4.75 -4.33)"/><path class="cls-9" d="M143.51,71.3s3.72.41,3.72,1.72-.34,5.25-1.24,6.91-.83,2.76-2.07,5.31-3.87,3.94-4.66,3.94-4.59-2-5.21-5.87-.28-12,1.65-12.77,7.81.76,7.81.76" transform="translate(-4.75 -4.33)"/><path class="cls-55" d="M142.94,63.3s3.57,1.56,3.93,3.89,2.16,3.54,2.23,4.55c.26,3.81-2.61,6.88-2.61,6.88s1.31-5.48-.09-6.31-3.64-.08-4.31-.08-2.37-1.74-3.3-1.81-3.31.39-3.31,2.1-1.71,5-1.71,5a16.3,16.3,0,0,1-.77-4.76c0-2.54,1.29-3.26,1.6-5.33s6-1.66,6.68-1.66.08-1.77-.23-2.07.95,0,.95,0l-1.76-.88Z" transform="translate(-4.75 -4.33)"/><path class="cls-56" d="M147,70.06a4.67,4.67,0,0,1-2.72-3.3c-.32-2.32-1.43-2.64-1.43-2.64s1.17,2.54.68,3.85S147,70.06,147,70.06" transform="translate(-4.75 -4.33)"/><path class="cls-56" d="M144.61,65.23s1.79,1,1.79,2.26V68.8Z" transform="translate(-4.75 -4.33)"/><path class="cls-56" d="M142.43,66.23a2.06,2.06,0,0,1-1.93,1.44c-1.51,0-2.84-1-4.25.43a2.52,2.52,0,0,1,1.92-1.3c1.21,0,3.43.43,4.26-.57" transform="translate(-4.75 -4.33)"/><path class="cls-9" d="M133.59,76.07c-1.16-.42-1.16,5.18.46,5.17,1,0,.34-4.87-.46-5.17" transform="translate(-4.75 -4.33)"/><path class="cls-5" d="M134.16,78s-.54-1.5-.77-1,.26,3.79.77,3.79,0-2.74,0-2.74" transform="translate(-4.75 -4.33)"/><path class="cls-55" d="M143.37,78.65a.63.63,0,1,0,.79-.43.64.64,0,0,0-.79.43" transform="translate(-4.75 -4.33)"/><path class="cls-55" d="M137.36,77.59a.64.64,0,0,0,.43.79.64.64,0,0,0,.36-1.22.65.65,0,0,0-.79.43" transform="translate(-4.75 -4.33)"/><path class="cls-55" d="M143,76.84a3.25,3.25,0,0,1,2.16-.37,1.43,1.43,0,0,1,1.21,1.11,3.22,3.22,0,0,0-1.69-.59c-.89,0-1.43.84-1.68-.15" transform="translate(-4.75 -4.33)"/><path class="cls-55" d="M139.86,75.9a3.25,3.25,0,0,0-2.16-.37,1.41,1.41,0,0,0-1.21,1.11,3.16,3.16,0,0,1,1.68-.59c.9,0,1.43.84,1.69-.15" transform="translate(-4.75 -4.33)"/><path class="cls-55" d="M140.87,82.06a6.86,6.86,0,0,1,.18-2,7.74,7.74,0,0,1,.18,2.32,6.12,6.12,0,0,1-1.37-.19,5,5,0,0,1,1-.17" transform="translate(-4.75 -4.33)"/><path class="cls-55" d="M140,85.48a3.53,3.53,0,0,0,1.29-.24.27.27,0,0,0,.15-.34.26.26,0,0,0-.34-.15c-.08,0-2.06.8-2.92-.86a.27.27,0,0,0-.35-.11.26.26,0,0,0-.11.35A2.43,2.43,0,0,0,140,85.48" transform="translate(-4.75 -4.33)"/><path class="cls-9" d="M171.09,99.36c1.14-1.14,6.44-2.91,10.45-5.81,1.78-1.29,5.19-3,8.51-4.82a21.22,21.22,0,0,1,6.26,5.06c-6,2.76-12.53,5.55-13.52,6.54-1.87,1.86-5.12,6.09-5.89,6.09s-6.53-1.7-7.4-2.56.45-3.36,1.59-4.5" transform="translate(-4.75 -4.33)"/><path class="cls-57" d="M190.05,88.73c4.19-2.32,8.23-4.88,8.65-7.16.76-4.08-2.7-21.72-.76-25.11s6.3-6.23,6.3-6.23c.69,0,3.18,1.52,3.87,4.56s-.55,30.45-1.24,32.94c-.33,1.17-5.06,5.83-10.38,8.28-1.64-2-4-5.94-6.44-7.28" transform="translate(-4.75 -4.33)"/><path class="cls-9" d="M146.91,125.68l-16.7,4.39s-4.91,3.54-7.11,4.25-4.91,3.14-4.38,3.89,3.3-1.8,3.75-1.72-1.63,3.08-2,5.06-1,3.88.12,3.73,1.94-4.6,1.94-4.6,1.74-3.35,2-3-1.16,2.7-1.16,2.7-.34,2.49-.49,3.37c-.11.65.49,2.61,1,1.89.3-.42.16-2,.51-3a14.66,14.66,0,0,1,1.89-3.4s-1.26,5.68-.47,5.81,1.61-4.57,1.61-4.57,1.92-3.92,2.76-4.26,3.16-1.85,4.94-2.47,9.18,1.43,12.48,1.47,8.65-2,9.09-4.59a3.24,3.24,0,0,0-1.11-2.5,8.76,8.76,0,0,0-8.72-2.53" transform="translate(-4.75 -4.33)"/><path class="cls-34" d="M145.5,93.89s5.06-.9,9.63,7.34,1.61,29.48,1.61,29.48l-9.83-5Z" transform="translate(-4.75 -4.33)"/><path class="cls-9" d="M194.25,39.65c-.24.25-.25,7.46-1.21,9.46,0,0-2.54,10.32-.81,10.53,1.49.19,6.92-8.32,7.22-9.74.4-1.92,0-11.5,0-11.5Z" transform="translate(-4.75 -4.33)"/><path class="cls-5" d="M194,43.12c2.06,1.48,4,.45,5.58-2V41c0-1.33-.09-2.56-.09-2.63l-5.2,1.25a28.33,28.33,0,0,0-.29,3.47" transform="translate(-4.75 -4.33)"/><path class="cls-9" d="M194,23.43s-2.9.58-3.24,3.15-.83,4.73-.34,7.73,2.2,7,5,7.66,5.79-4.22,5.79-6.87,1-7.09-.9-9.81S194,23.43,194,23.43" transform="translate(-4.75 -4.33)"/><path class="cls-20" d="M197.26,37.29a11.25,11.25,0,0,1-3.78.71,4.59,4.59,0,0,0,.43.67,11.17,11.17,0,0,0,3-.56,5.42,5.42,0,0,0,.33-.82" transform="translate(-4.75 -4.33)"/><path class="cls-58" d="M196.93,38.11a11.1,11.1,0,0,1-3,.56c1.08,1.33,2.23,1,3-.56" transform="translate(-4.75 -4.33)"/><path class="cls-5" d="M194,23.43s-2.9.58-3.24,3.15a26.51,26.51,0,0,0-.46,6.91,8.27,8.27,0,0,1,2-1c3.16-1.08,6-7.42,6.1-7.69l0-.11v-.13a2.37,2.37,0,0,0-.09-.78,8.84,8.84,0,0,0-4.41-.37" transform="translate(-4.75 -4.33)"/><path class="cls-8" d="M194,35.56a22.57,22.57,0,0,0,.12-2.47c-.17,1-.21,1.81-.27,2.57a2.17,2.17,0,0,0,1.56.12,2.62,2.62,0,0,1-1.41-.22" transform="translate(-4.75 -4.33)"/><path class="cls-8" d="M195.53,33a1.57,1.57,0,0,1,1.07-1.07c.94-.26,1.52,1.15,2.17,1.14-.47.25-1.21-.58-1.72-.79a.88.88,0,0,0-.8.1,2.34,2.34,0,0,0-.72.62" transform="translate(-4.75 -4.33)"/><path class="cls-8" d="M197.24,32.58a.5.5,0,0,1-.46.54.51.51,0,0,1-.46-.54.51.51,0,0,1,.46-.54.51.51,0,0,1,.46.54" transform="translate(-4.75 -4.33)"/><path class="cls-8" d="M193.43,33.32a1.64,1.64,0,0,0-1.11-1c-1-.21-1.47,1.23-2.12,1.25.47.22,1.18-.64,1.68-.87a.91.91,0,0,1,.8.06,2.45,2.45,0,0,1,.75.59" transform="translate(-4.75 -4.33)"/><path class="cls-8" d="M191.7,33a.47.47,0,1,0,.44-.56.5.5,0,0,0-.44.56" transform="translate(-4.75 -4.33)"/><path class="cls-8" d="M195.19,30.72a2.32,2.32,0,0,1,1.72-1c1-.1,2.06,1,2.06,1s-1.46-.9-2.08-.61-1.12,1-1.7.61" transform="translate(-4.75 -4.33)"/><path class="cls-5" d="M196.53,34.94c.13.4.82.51,1.55.26s1.22-.78,1.09-1.17-.82-.51-1.55-.25-1.22.77-1.09,1.16" transform="translate(-4.75 -4.33)"/><path class="cls-5" d="M190.65,34.75c-.05.37.42.76,1.06.86s1.2-.12,1.25-.5-.41-.76-1.05-.86-1.2.12-1.26.5" transform="translate(-4.75 -4.33)"/><path class="cls-21" d="M196.55,21.25c2.11.25,5.45-.29,7,3.29a28.26,28.26,0,0,1,2.8,12.9c0,10.37,9.63,15,9.63,15l-4.22,2.11-2.52-2.11L211,56.2l-6.92.72-.3-5-1.43,5.65-4.15-.68s2.19-17,2.33-23.37l0,0c.05-5,.26-7.62-2.62-9.05-1.52-.75-6.95,1.39-6.95,1.39.19-3.26,3.54-4.93,5.65-4.68" transform="translate(-4.75 -4.33)"/><path class="cls-59" d="M193.72,21.84c-2.65.61-3.45,4.85-5.62,7.1s-1.62,5.51-.59,7.66a1.64,1.64,0,0,0,2.69.75s-.86.5-1.41-1.29.41-3.18,3.34-4.18,5.72-7.34,5.72-7.34a3.17,3.17,0,0,0-4.13-2.7" transform="translate(-4.75 -4.33)"/><path class="cls-60" d="M190.2,37.35c-1,.61-2.42-2-1.39-3.62.75-1.29,2.41-1.83,3.72-2.4,2.09-1.25,4.1-4.69,5.32-6.79-.88,2.51-2.75,6-5,7.37l-.54.25A6.65,6.65,0,0,0,189.22,34a2.88,2.88,0,0,0,.09,3,.77.77,0,0,0,.89.37" transform="translate(-4.75 -4.33)"/><path class="cls-9" d="M199.92,33.92s.73-3.33,2-2.52-.09,4.48-1.23,4.48-.73-2-.73-2" transform="translate(-4.75 -4.33)"/><path class="cls-5" d="M201.11,32.1s-1.81,3-.57,2.68,1.74-3.25.57-2.68" transform="translate(-4.75 -4.33)"/><path class="cls-9" d="M170.58,98.17s-2,2.83-2.58,2.83-3.7.2-4.19-.29,1.76-4.17,2.56-4.17-1,2.43-.74,2.64,2-3.85,2.84-3.47-1.74,3.22-1.44,3.52S169.19,96,169.9,96s-1.69,3.17-1.43,3.43,1.77-1.61,2.11-1.27" transform="translate(-4.75 -4.33)"/></svg>