<?xml version="1.0" encoding="utf-8"?>
<!-- Generator: Adobe Illustrator 25.2.1, SVG Export Plug-In . SVG Version: 6.00 Build 0)  -->
<svg version="1.1" id="Outline" xmlns="http://www.w3.org/2000/svg" xmlns:xlink="http://www.w3.org/1999/xlink" x="0px" y="0px"
	 viewBox="0 0 512 512" style="enable-background:new 0 0 512 512;" xml:space="preserve">
<style type="text/css">
	.st0{fill:#FFFFFF;}
</style>
<path class="st0" d="M200,128h24v360c0,4.4,3.6,8,8,8h48c4.4,0,8-3.6,8-8V128h24c4.4,0,8-3.6,8-8c0-1.4-0.4-2.8-1.1-4l-56-96
	c-2.2-3.8-7.1-5.1-10.9-2.9c-1.2,0.7-2.2,1.7-2.9,2.9l-56,96c-2.2,3.8-0.9,8.7,2.9,10.9C197.2,127.6,198.6,128,200,128z M256,39.9
	l42.1,72.1H280c-4.4,0-8,3.6-8,8v360h-32V120c0-4.4-3.6-8-8-8h-18.1L256,39.9z"/>
<path class="st0" d="M304,232v256c0,4.4,3.6,8,8,8h48c4.4,0,8-3.6,8-8V256h16v24c0,4.4,3.6,8,8,8c1.4,0,2.8-0.4,4-1.1l96-56
	c3.8-2.2,5.1-7.1,2.9-10.9c-0.7-1.2-1.7-2.2-2.9-2.9l-96-56c-3.8-2.2-8.7-0.9-10.9,2.9c-0.7,1.2-1.1,2.6-1.1,4v24h-40
	C321.9,192,304,209.9,304,232z M320,232c0-13.2,10.8-24,24-24h48c4.4,0,8-3.6,8-8v-18.1l72.1,42.1L400,266.1V248c0-4.4-3.6-8-8-8
	h-32c-4.4,0-8,3.6-8,8v232h-32V232z"/>
<path class="st0" d="M20,358.9l96,56c3.8,2.2,8.7,0.9,10.9-2.9c0.7-1.2,1.1-2.6,1.1-4v-24h16v104c0,4.4,3.6,8,8,8h48
	c4.4,0,8-3.6,8-8V360c0-22.1-17.9-40-40-40h-40v-24c0-4.4-3.6-8-8-8c-1.4,0-2.8,0.4-4,1.1l-96,56c-3.8,2.2-5.1,7.1-2.9,10.9
	C17.8,357.2,18.8,358.2,20,358.9z M112,309.9V328c0,4.4,3.6,8,8,8h48c13.2,0,24,10.8,24,24v120h-32V376c0-4.4-3.6-8-8-8h-32
	c-4.4,0-8,3.6-8,8v18.1L39.9,352L112,309.9z"/>
</svg>
