<?xml version="1.0" encoding="utf-8"?>
<!-- Generator: Adobe Illustrator 25.2.1, SVG Export Plug-In . SVG Version: 6.00 Build 0)  -->
<svg version="1.1" id="Layer_1" xmlns="http://www.w3.org/2000/svg" xmlns:xlink="http://www.w3.org/1999/xlink" x="0px" y="0px"
	 viewBox="0 0 512 512" style="enable-background:new 0 0 512 512;" xml:space="preserve">
<style type="text/css">
	.st0{fill:#FFFFFF;}
</style>
<g>
	<path class="st0" d="M477.3,414.7L278.8,71c-9.2-17.3-36.3-17.4-45.6,0L34.7,414.7c-7.3,12.6-3,28.7,9.6,35.9
		c4,2.3,8.5,3.5,13.2,3.5h397C474.1,454.8,487.7,431.4,477.3,414.7L477.3,414.7z M465.1,434c-2.2,3.8-6.3,6.2-10.7,6.2h-397
		c-6.8-0.1-12.3-5.7-12.3-12.5c0-2.1,0.6-4.1,1.6-5.9L245.3,78c3.4-5.9,10.9-7.9,16.8-4.5c1.9,1.1,3.4,2.6,4.5,4.5l198.5,343.8
		C467.4,425.5,467.4,430.2,465.1,434L465.1,434z"/>
	<path class="st0" d="M254.1,314.9c11.5,1.8,22.3-6.1,24-17.6c0.1-0.9,0.2-1.9,0.2-2.8V169.3c0-11.3-9.2-20.4-20.5-20.5
		c-11.5-1.8-22.3,6.1-24,17.6c-0.1,0.9-0.2,1.9-0.2,2.8v125.1C233.7,305.7,242.8,314.9,254.1,314.9L254.1,314.9z M247.6,169.3
		c0-3.6,2.9-6.4,6.5-6.5h3.8c3.6,0,6.4,2.9,6.5,6.5v125.1c0,3.6-2.9,6.5-6.5,6.5h-3.8c-3.6,0-6.5-2.9-6.5-6.5L247.6,169.3z"/>
	<path class="st0" d="M256,335.1c-16.6,0-30,13.5-30,30c1.4,39.7,58.7,39.7,60.1,0C286,348.6,272.6,335.1,256,335.1z M256,381.2
		c-8.9,0-16-7.2-16-16c0-8.8,7.2-16,16-16c8.9,0,16,7.2,16,16C272,374,264.8,381.2,256,381.2z"/>
</g>
</svg>
