<?xml version="1.0" encoding="utf-8"?>
<!-- Generator: Adobe Illustrator 25.2.1, SVG Export Plug-In . SVG Version: 6.00 Build 0)  -->
<svg version="1.1" id="Capa_1" xmlns="http://www.w3.org/2000/svg" xmlns:xlink="http://www.w3.org/1999/xlink" x="0px" y="0px"
	 viewBox="0 0 368 368" style="enable-background:new 0 0 368 368;" xml:space="preserve">
<style type="text/css">
	.st0{fill:#FFFFFF;}
</style>
<g>
	<g>
		<path class="st0" d="M367.4,4.9c-0.8-2-2.4-3.5-4.3-4.3c-1-0.4-2-0.6-3.1-0.6H232c-4.4,0-8,3.6-8,8s3.6,8,8,8h108.7L16,340.7V232
			c0-4.4-3.6-8-8-8s-8,3.6-8,8v128c0,1,0.2,2.1,0.6,3.1c0.8,2,2.4,3.5,4.3,4.3c1,0.4,2,0.6,3.1,0.6h128c4.4,0,8-3.6,8-8s-3.6-8-8-8
			H27.3L352,27.3V136c0,4.4,3.6,8,8,8s8-3.6,8-8V8C368,7,367.8,5.9,367.4,4.9z"/>
	</g>
</g>
</svg>
